<svg width="428" height="212" viewBox="0 0 428 212" fill="none" xmlns="http://www.w3.org/2000/svg">
<path d="M387.102 211.131C386.382 211.13 385.669 210.979 385.01 210.687C384.352 210.395 383.761 209.969 383.276 209.436L325.866 146.8C325.215 146.091 324.423 145.525 323.542 145.137C322.66 144.749 321.708 144.548 320.745 144.547H17.369C12.765 144.542 8.35116 142.711 5.0957 139.455C1.84024 136.199 0.00906915 131.785 0.00390625 127.18V17.7652C0.00907221 13.1608 1.84028 8.74654 5.09573 5.49077C8.35119 2.23499 12.765 0.403604 17.369 0.398438H410.415C415.019 0.403601 419.433 2.23495 422.689 5.49073C425.944 8.74651 427.775 13.1608 427.781 17.7652V127.18C427.775 131.785 425.944 136.199 422.689 139.455C419.433 142.711 415.019 144.542 410.415 144.547H399.272C397.431 144.549 395.665 145.282 394.362 146.585C393.06 147.887 392.327 149.653 392.325 151.495V205.916C392.33 206.966 392.015 207.994 391.421 208.861C390.828 209.728 389.985 210.394 389.005 210.771C388.398 211.008 387.753 211.13 387.102 211.131ZM17.3689 2.71254C13.3785 2.71705 9.5528 4.3044 6.73114 7.12633C3.90948 9.94827 2.32229 13.7743 2.31778 17.7652V127.18C2.32229 131.171 3.90948 134.997 6.73114 137.819C9.5528 140.641 13.3785 142.229 17.3689 142.233H320.745C322.029 142.234 323.298 142.502 324.473 143.019C325.648 143.536 326.703 144.291 327.572 145.236L384.982 207.872C385.376 208.302 385.891 208.603 386.459 208.736C387.027 208.868 387.622 208.826 388.166 208.614C388.709 208.403 389.176 208.032 389.506 207.55C389.835 207.069 390.011 206.499 390.011 205.916V151.495C390.014 149.04 390.991 146.685 392.727 144.949C394.463 143.213 396.817 142.236 399.272 142.233H410.415C414.406 142.229 418.232 140.641 421.053 137.819C423.875 134.997 425.462 131.171 425.467 127.18V17.7652C425.462 13.7744 423.875 9.9483 421.053 7.12637C418.232 4.30443 414.406 2.71708 410.415 2.71257L17.3689 2.71254Z" fill="#3F3D56"/>
<path d="M392.688 117.555H35.0962C32.9469 117.555 30.8856 116.701 29.3658 115.182C27.846 113.662 26.9922 111.6 26.9922 109.451C26.9922 107.301 27.846 105.24 29.3658 103.72C30.8856 102.2 32.9469 101.346 35.0962 101.346H392.688C394.837 101.346 396.898 102.2 398.418 103.72C399.938 105.24 400.792 107.301 400.792 109.451C400.792 111.6 399.938 113.662 398.418 115.182C396.898 116.701 394.837 117.555 392.688 117.555Z" fill="#37AEBA"/>
<path d="M276.194 83.1101H35.0981C34.033 83.1114 32.9782 82.9027 31.9938 82.496C31.0095 82.0892 30.115 81.4924 29.3614 80.7397C28.6079 79.9869 28.0101 79.093 27.6022 78.1091C27.1943 77.1251 26.9844 76.0704 26.9844 75.0052C26.9844 73.9401 27.1943 72.8854 27.6022 71.9014C28.0101 70.9175 28.6079 70.0236 29.3614 69.2708C30.115 68.5181 31.0095 67.9213 31.9938 67.5146C32.9782 67.1078 34.033 66.8991 35.0981 66.9004H276.194C277.259 66.8991 278.314 67.1078 279.298 67.5146C280.282 67.9213 281.177 68.5181 281.93 69.2708C282.684 70.0236 283.282 70.9175 283.69 71.9014C284.097 72.8854 284.307 73.9401 284.307 75.0052C284.307 76.0704 284.097 77.1251 283.69 78.1091C283.282 79.093 282.684 79.9869 281.93 80.7397C281.177 81.4924 280.282 82.0892 279.298 82.496C278.314 82.9027 277.259 83.1114 276.194 83.1101Z" fill="#37AEBA"/>
<path d="M393.594 41.4195L369.405 25.1035C364.89 22.0591 358.958 22.1398 354.529 25.3097L330.877 42.24C323.614 47.441 323.614 58.2421 330.877 63.4386L354.152 80.0954C358.653 83.3191 364.702 83.346 369.235 80.1581L393.805 62.8916C401.279 57.6368 401.172 46.5263 393.599 41.4195H393.594Z" fill="#37AEBA" stroke="white" stroke-width="2" stroke-miterlimit="10"/>
<path opacity="0.77" d="M400.062 45.5893C399.595 46.2395 399.021 46.6116 398.322 47.1362C395.807 49.0328 393.17 50.7859 390.601 52.6107C388.996 53.7496 386.965 54.6867 384.983 53.9782C384.189 53.6958 383.566 53.2429 382.925 52.7004C382.185 52.0727 373.119 44.5133 373.03 44.5985C371.868 43.4551 370.626 42.2356 369.42 41.1416C366.327 38.3527 361.04 39.0432 357.763 41.3568C357.763 41.3568 351.199 45.9839 351.194 45.9884L342.093 52.4045C339.972 53.902 337.291 54.2024 334.95 53.3236C334.206 53.0456 333.502 52.6511 332.856 52.1399L330.789 50.4944L327.225 47.5711L326.826 47.2393L324.934 45.6835C324.804 45.5759 324.687 45.4728 324.575 45.3607C324.346 45.132 324.14 44.8854 323.961 44.6119C323.79 44.3563 323.647 44.0873 323.535 43.8093C323.485 43.6973 323.454 43.5896 323.423 43.4775C323.391 43.4013 323.373 43.3206 323.351 43.2399C323.181 42.5898 323.149 41.9128 323.261 41.2492C323.266 41.2268 323.275 41.2088 323.275 41.1774C323.427 40.4645 323.858 39.8413 324.449 39.4109C327.292 37.317 336.551 30.5064 336.551 30.5064L347.773 22.2654L356.615 15.7686C359.408 13.7151 363.215 13.7151 366.013 15.7686L378.024 24.5969C378.024 24.5969 384.418 29.2913 384.423 29.2913C387.987 31.7394 391.552 34.183 395.116 36.631C396.43 37.5322 397.748 38.4335 399.066 39.3302C399.488 39.6171 399.914 39.9131 400.205 40.33C400.496 40.7515 400.622 41.2626 400.739 41.7603C400.855 42.2401 400.967 42.7288 400.949 43.222C400.922 43.8631 400.671 44.4684 400.384 45.0423C400.286 45.2441 400.178 45.419 400.062 45.5804V45.5893Z" fill="#37AEBA" stroke="white" stroke-width="2" stroke-miterlimit="10"/>
<path opacity="0.77" d="M376.402 28.2916C376.29 28.3858 376.174 28.4754 376.053 28.5606L375.322 29.0897L374.268 29.8519L366.09 35.7748C364.14 37.1827 361.494 37.102 359.638 35.582L351.567 28.9597L350.577 28.1481L349.276 27.0765C349.151 26.9689 349.03 26.8658 348.918 26.7537C348.904 26.7403 348.891 26.7268 348.877 26.7134C347.2 25.032 347.501 22.2208 349.415 20.8129L356.589 15.5401C359.382 13.4866 363.189 13.4866 365.987 15.5401L376.192 23.0368C377.931 24.3146 378.034 26.8793 376.402 28.2961V28.2916Z" fill="#37AEBA" stroke="white" stroke-width="2" stroke-miterlimit="10"/>
<path opacity="0.77" d="M376.048 66.5906L374.263 67.8819L366.085 73.8048C364.135 75.2126 361.489 75.1319 359.633 73.612L351.563 66.9896L349.271 65.102C349.146 64.9989 349.025 64.8913 348.913 64.7792C346.805 62.7122 347.2 59.197 349.567 57.4305L359.727 49.8621C359.821 49.7949 359.938 49.7231 360.073 49.6559C361.314 49.0326 362.812 49.203 363.942 50.019L375.936 58.6904L375.989 58.7308C378.464 60.578 378.742 64.3129 376.397 66.3171C376.285 66.4112 376.173 66.5009 376.052 66.5906H376.048Z" fill="#37AEBA" stroke="white" stroke-width="2" stroke-miterlimit="10"/>
<path opacity="0.77" d="M350.909 45.8366C350.133 46.6437 349.106 47.1997 348.192 47.8319C346.663 48.8945 345.12 49.9481 343.587 51.0063C342.892 51.486 342.197 51.9523 341.511 52.4455C340.749 52.9925 339.951 53.5306 339.04 53.7996C338.027 54.0955 336.92 54.0327 335.924 53.6785C334.835 53.2885 333.916 52.5756 333.037 51.8447C332.127 51.0915 331.19 50.3831 330.257 49.6567C328.446 48.2444 326.634 46.832 324.818 45.4241C324.289 45.0116 323.742 44.5812 323.455 43.9759C323.182 43.3975 323.177 42.734 323.218 42.0973C323.258 41.4158 323.343 40.7163 323.671 40.1155C324.011 39.4968 324.581 39.0394 325.164 38.6449C326.087 38.0216 326.966 37.3625 327.863 36.7079C329.54 35.4839 331.221 34.2554 332.898 33.0314C333.683 32.4575 334.467 31.888 335.252 31.3141C336.211 30.6147 337.529 30.5295 338.511 31.1976C338.516 31.1976 338.525 31.2065 338.529 31.211L342.529 33.964C344.519 35.3315 346.479 36.7617 348.492 38.0889C349.353 38.6538 350.272 39.1739 350.962 39.9496C351.568 40.6266 351.967 41.483 352.079 42.3842C352.191 43.2854 352.007 44.218 351.55 44.9982C351.366 45.3121 351.146 45.5856 350.904 45.8411L350.909 45.8366Z" fill="#37AEBA" stroke="white" stroke-width="2" stroke-linecap="round" stroke-linejoin="round"/>
<path opacity="0.77" d="M399.809 45.9158C399.043 46.7363 398.025 47.3057 397.124 47.9558C395.608 49.0409 394.088 50.1125 392.568 51.193C391.882 51.6817 391.192 52.157 390.515 52.6592C389.761 53.2196 388.972 53.7666 388.071 54.0401C387.067 54.345 385.973 54.2778 384.986 53.9146C383.91 53.5155 383 52.7847 382.13 52.0449C381.229 51.2737 380.301 50.5519 379.382 49.8121C377.588 48.3683 375.799 46.9291 374.002 45.4898C373.477 45.0684 372.934 44.629 372.652 44.0102C372.383 43.4229 372.378 42.7458 372.414 42.0957C372.455 41.4007 372.54 40.6878 372.863 40.0736C373.199 39.4459 373.759 38.9751 374.342 38.5716C375.252 37.9349 376.122 37.2623 377.01 36.5943L381.991 32.8415C382.767 32.2586 383.543 31.6712 384.318 31.0884C385.269 30.3755 386.574 30.2858 387.542 30.9673C387.547 30.9718 387.556 30.9763 387.56 30.9808L391.519 33.792C393.487 35.1909 395.424 36.6481 397.42 38.0021C398.271 38.5805 399.177 39.1096 399.863 39.9032C400.459 40.5937 400.859 41.468 400.966 42.3871C401.078 43.3018 400.894 44.2568 400.442 45.0549C400.262 45.3733 400.042 45.6557 399.8 45.9158H399.809Z" fill="#37AEBA" stroke="white" stroke-width="2" stroke-linecap="round" stroke-linejoin="round"/>
</svg>
