<svg width="224" height="464" viewBox="0 0 224 464" fill="none" xmlns="http://www.w3.org/2000/svg">
<path d="M0.53164 217.96C0.87888 216.295 1.58697 214.726 2.60602 213.364C3.62508 212.003 4.93033 210.881 6.42982 210.078C7.9293 209.275 9.58652 208.811 11.2848 208.718C12.9831 208.625 14.6811 208.905 16.2593 209.54L43.4006 178.35L49.1655 199.048L22.5078 225.494C21.2665 228.074 19.1218 230.11 16.48 231.215C13.8382 232.32 10.8829 232.418 8.17401 231.489C5.46516 230.56 3.19097 228.67 1.78244 226.177C0.37391 223.683 -0.0711336 220.76 0.53164 217.96Z" fill="#FFB8B8"/>
<path d="M149.494 71.5934C165.188 71.5934 177.91 58.8699 177.91 43.1746C177.91 27.4794 165.188 14.7559 149.494 14.7559C133.8 14.7559 121.078 27.4794 121.078 43.1746C121.078 58.8699 133.8 71.5934 149.494 71.5934Z" fill="#FFB8B8"/>
<path d="M116.111 434.347L101.928 434.346L95.1797 379.631L116.115 379.632L116.111 434.347Z" fill="#FFB8B8"/>
<path d="M119.731 448.098L73.9961 448.096V447.518C73.9961 445.18 74.4565 442.865 75.3511 440.705C76.2457 438.545 77.5569 436.582 79.2099 434.929C80.863 433.276 82.8254 431.965 84.9852 431.07C87.145 430.175 89.4598 429.715 91.7975 429.715L119.732 429.716L119.731 448.098Z" fill="#2F2E41"/>
<path d="M158.921 449.389L144.738 449.388L142.773 395.98L158.925 394.674L158.921 449.389Z" fill="#FFB8B8"/>
<path d="M162.536 463.141L116.801 463.139V462.561C116.801 460.223 117.261 457.908 118.156 455.748C119.05 453.588 120.362 451.625 122.015 449.972C123.668 448.319 125.63 447.007 127.79 446.113C129.95 445.218 132.265 444.758 134.602 444.758L162.537 444.759L162.536 463.141Z" fill="#2F2E41"/>
<path d="M154.885 439.405L143.839 438.105C142.587 437.955 141.431 437.356 140.585 436.419C139.74 435.482 139.263 434.271 139.242 433.009L137.172 289.14C137.166 288.733 137.017 288.341 136.751 288.033C136.485 287.724 136.12 287.519 135.718 287.453C135.316 287.387 134.904 287.465 134.554 287.672C134.203 287.879 133.937 288.203 133.801 288.587L118.476 331.86L119.572 412.973C119.591 414.311 119.093 415.606 118.182 416.587C117.27 417.568 116.016 418.16 114.68 418.24L100.26 418.853C98.9408 418.928 97.6422 418.501 96.6242 417.659C95.6063 416.817 94.9443 415.621 94.7707 414.312L87.2392 322.555L87.2344 322.498L98.6618 226.67L184.488 232.88L160.663 434.845C160.512 436.11 159.903 437.277 158.951 438.123C157.999 438.97 156.77 439.439 155.496 439.442C155.292 439.442 155.087 439.43 154.885 439.405Z" fill="#2F2E41"/>
<path d="M99.029 235.164C98.2586 234.752 97.6048 234.153 97.1284 233.421C96.6521 232.689 96.3687 231.848 96.3047 230.977C96.3047 230.977 104.023 182.977 106.851 182.076L100.663 130.745C99.9215 124.484 100.438 118.139 102.183 112.08C103.927 106.022 106.864 100.373 110.821 95.4657C114.632 90.7046 119.368 86.7651 124.743 83.885C130.118 81.005 136.021 79.244 142.096 78.7086C142.961 78.6306 143.821 78.5711 144.677 78.53C151.999 78.1378 159.308 79.5196 165.982 82.5578C172.656 85.596 178.498 90.2008 183.011 95.9809C187.692 101.811 190.897 108.685 192.351 116.019C193.805 123.353 193.466 130.93 191.364 138.105L187.893 150.185V234.6C187.889 235.424 187.693 236.235 187.319 236.969C186.944 237.704 186.403 238.34 185.739 238.827C174.932 246.759 162.719 249.564 150.85 249.564C128.393 249.564 107.167 239.521 99.029 235.164Z" fill="#37AEBA"/>
<path d="M32.3991 219.717L17.4716 208.554C16.886 208.116 16.3991 207.56 16.0428 206.921C15.6865 206.282 15.4687 205.576 15.4035 204.848C15.3384 204.119 15.4274 203.385 15.6647 202.694C15.9021 202.002 16.2824 201.368 16.7811 200.833L105.708 105.405C108.563 102.368 112.411 100.456 116.555 100.016C120.699 99.575 124.864 100.635 128.293 103.004C130.383 104.46 132.126 106.36 133.397 108.567C134.669 110.774 135.439 113.235 135.651 115.773C135.864 118.312 135.515 120.866 134.628 123.254C133.741 125.642 132.339 127.805 130.521 129.589L39.1634 219.264C38.3608 220.059 37.3198 220.57 36.1995 220.718C35.0791 220.866 33.9411 220.643 32.9594 220.084C32.7651 219.973 32.578 219.851 32.3991 219.717Z" fill="#37AEBA"/>
<path d="M146.647 207.082C147.299 205.511 148.288 204.102 149.544 202.955C150.8 201.808 152.292 200.95 153.915 200.442C155.538 199.933 157.253 199.787 158.939 200.014C160.624 200.24 162.24 200.833 163.672 201.751L196.166 176.188L197.959 197.599L166.827 218.592C165.125 220.895 162.637 222.494 159.835 223.086C157.034 223.677 154.112 223.22 151.625 221.801C149.137 220.382 147.257 218.1 146.339 215.387C145.422 212.675 145.531 209.719 146.647 207.082Z" fill="#FFB8B8"/>
<path d="M175.734 217.061C174.873 216.794 174.098 216.307 173.485 215.647C172.871 214.988 172.441 214.179 172.236 213.302L168.954 199.514C168.713 198.536 168.766 197.508 169.105 196.559C169.445 195.61 170.056 194.782 170.863 194.178L192.948 170.291L160.462 120.194C158.004 117.166 156.618 113.409 156.521 109.51C156.424 105.61 157.622 101.789 159.928 98.6427C161.766 96.1359 164.234 94.1595 167.081 92.9137C169.929 91.668 173.055 91.1971 176.144 91.5488C179.232 91.9005 182.172 93.0622 184.667 94.9164C187.162 96.7706 189.122 99.2512 190.35 102.107L220.551 160.898C223.553 166.739 224.302 173.481 222.655 179.839C221.007 186.196 217.079 191.726 211.618 195.373L180.754 215.992C179.809 216.838 178.586 217.306 177.318 217.308C176.78 217.307 176.246 217.224 175.734 217.061Z" fill="#37AEBA"/>
<path d="M170.55 68.5804C169.88 68.9823 169.127 69.2247 168.349 69.2888C167.57 69.3529 166.788 69.237 166.061 68.9501C165.335 68.6631 164.685 68.2129 164.16 67.6341C163.636 67.0554 163.252 66.3637 163.037 65.6126L163.02 65.5417C162.441 63.1772 162.898 60.7024 163.047 58.2727C163.197 55.8429 162.945 53.1759 161.281 51.3989C158.18 48.0864 152.704 49.8805 148.24 49.0626C145.626 48.4936 143.308 46.9912 141.721 44.8365C140.134 42.6819 139.386 40.0226 139.618 37.3565C139.679 36.8513 139.776 36.3454 139.885 35.8397C140.157 34.5584 140.128 33.2315 139.801 31.9631C139.474 30.6948 138.857 29.5195 138 28.5295C137.142 27.5396 136.067 26.7619 134.858 26.2576C133.649 25.7533 132.34 25.5361 131.033 25.6229C126.529 25.9047 121.672 27.296 117.926 23.9783C116.552 22.669 115.595 20.9842 115.172 19.134C114.75 17.2838 114.881 15.3502 115.551 13.5743C117.647 7.41795 123.646 4.16877 129.59 2.36843C136.942 0.201265 144.685 -0.300196 152.255 0.900521C159.825 2.10124 167.032 4.97393 173.353 9.30978C177.128 11.9406 180.658 15.2527 182.284 19.5572C183.91 23.8617 183.165 29.3073 179.566 32.1739C182.384 35.1254 184.376 38.7656 185.344 42.7297C186.311 46.6938 186.22 50.8427 185.08 54.7605C183.325 60.5228 174.835 66.0838 170.55 68.5804Z" fill="#2F2E41"/>
</svg>
