<svg width="256" height="244" viewBox="0 0 256 244" fill="none" xmlns="http://www.w3.org/2000/svg">
<path d="M231.359 18.811C231.359 18.811 120.789 1.32993 138.229 111.106C248.983 128.404 231.359 18.811 231.359 18.811Z" fill="#DFAE42"/>
<path d="M38.742 2.00242C38.742 2.00242 149.313 -15.4787 131.872 94.2974C21.1184 111.595 38.742 2.00242 38.742 2.00242Z" fill="#DFAE42"/>
<path d="M226.624 7.931C226.624 7.931 111.734 -10.3854 129.847 104.708C244.941 122.841 226.624 7.931 226.624 7.931Z" stroke="black" stroke-width="6" stroke-linecap="round" stroke-linejoin="round"/>
<path d="M196.613 37.9414L129.867 104.687" stroke="black" stroke-width="6" stroke-linecap="round" stroke-linejoin="round"/>
<path d="M29.2044 7.931C29.2044 7.931 144.094 -10.3854 125.982 104.708C10.888 122.841 29.2044 7.931 29.2044 7.931Z" stroke="black" stroke-width="6" stroke-linecap="round" stroke-linejoin="round"/>
<path d="M63.1328 41.834L125.987 104.688" stroke="black" stroke-width="6" stroke-linecap="round" stroke-linejoin="round"/>
<path d="M135.103 153.586C133.229 142.889 131.314 126.549 130.56 102.65H125.283C124.386 131.582 121.758 149.43 119.578 159.596C119.578 159.596 128.93 156.764 135.103 153.586Z" stroke="black" stroke-width="6" stroke-linecap="round" stroke-linejoin="round"/>
<path d="M75.7661 176.161L39.1741 154.034C27.7849 147.026 12.871 150.571 5.8623 161.939C1.86896 168.439 3.88601 176.935 10.3854 180.949L41.1911 199.998L82.021 225.14C113.316 244.414 156.244 245.046 186.867 229.724C186.867 229.724 215.676 213.629 252.003 218.519V145.864L224.355 130.543C193.488 113.306 154.064 142.604 154.064 142.604C139.048 152.506 126.355 158.883 108.874 162.225C102.375 163.467 94.3474 163.366 88.3981 166.014C81.0023 169.295 75.0123 174.897 73.1378 182.986C71.8339 188.67 74.2992 195.781 79.189 199.082C85.831 203.564 95.8143 201.995 103.19 201.037C121.425 198.694 139.334 193.744 156.387 186.959C156.611 186.877 156.835 186.776 157.059 186.694" stroke="black" stroke-width="6" stroke-linecap="round" stroke-linejoin="round"/>
<path d="M90.0244 165.32L50.2948 142.033C40.2299 135.839 27.0479 138.956 20.8337 149.021L19.7539 151.364" stroke="black" stroke-width="6" stroke-linecap="round" stroke-linejoin="round"/>
<path d="M113.007 161.39L67.552 134.557C58.4448 128.954 46.7907 130.971 40.0469 138.876" stroke="black" stroke-width="6" stroke-linecap="round" stroke-linejoin="round"/>
</svg>
