<svg width="308" height="309" viewBox="0 0 308 309" fill="none" xmlns="http://www.w3.org/2000/svg">
<path d="M38.5 164.172C38.5 100.647 90.475 48.6719 154 48.6719C217.525 48.6719 269.5 100.647 269.5 164.172" stroke="white" stroke-width="5" stroke-miterlimit="10" stroke-linecap="round" stroke-linejoin="round"/>
<path d="M48.125 154.547H28.875V173.797H48.125V154.547Z" stroke="white" stroke-width="5" stroke-miterlimit="10" stroke-linecap="round" stroke-linejoin="round"/>
<path d="M279.125 154.547H259.875V173.797H279.125V154.547Z" stroke="white" stroke-width="5" stroke-miterlimit="10" stroke-linecap="round" stroke-linejoin="round"/>
<path d="M163.625 39.0469H144.375V58.2969H163.625V39.0469Z" stroke="white" stroke-width="5" stroke-miterlimit="10" stroke-linecap="round" stroke-linejoin="round"/>
<path d="M38.5 58.2969C43.8157 58.2969 48.125 53.9876 48.125 48.6719C48.125 43.3561 43.8157 39.0469 38.5 39.0469C33.1843 39.0469 28.875 43.3561 28.875 48.6719C28.875 53.9876 33.1843 58.2969 38.5 58.2969Z" stroke="white" stroke-width="5" stroke-miterlimit="10" stroke-linecap="round" stroke-linejoin="round"/>
<path d="M269.5 58.2969C274.816 58.2969 279.125 53.9876 279.125 48.6719C279.125 43.3561 274.816 39.0469 269.5 39.0469C264.184 39.0469 259.875 43.3561 259.875 48.6719C259.875 53.9876 264.184 58.2969 269.5 58.2969Z" stroke="white" stroke-width="5" stroke-miterlimit="10" stroke-linecap="round" stroke-linejoin="round"/>
<path d="M38.5 48.6719H269.5" stroke="white" stroke-width="5" stroke-miterlimit="10" stroke-linecap="round" stroke-linejoin="round"/>
<path d="M154 96.7969L96.25 185.347C111.65 202.672 123.2 224.809 128.975 250.797H154H179.025C184.8 224.809 196.35 201.709 211.75 185.347L154 96.7969Z" stroke="white" stroke-width="10" stroke-miterlimit="10" stroke-linecap="round" stroke-linejoin="round"/>
<path d="M154 164.171V99.6836" stroke="white" stroke-width="10" stroke-miterlimit="10" stroke-linecap="round" stroke-linejoin="round"/>
<path d="M154 202.672C164.631 202.672 173.25 194.053 173.25 183.422C173.25 172.79 164.631 164.172 154 164.172C143.369 164.172 134.75 172.79 134.75 183.422C134.75 194.053 143.369 202.672 154 202.672Z" stroke="white" stroke-width="10" stroke-miterlimit="10" stroke-linecap="round" stroke-linejoin="round"/>
<path d="M182.875 250.797H125.125V279.672H182.875V250.797Z" stroke="white" stroke-width="10" stroke-miterlimit="10" stroke-linecap="round" stroke-linejoin="round"/>
<path d="M166.246 224.542L157.143 218.391C155.444 217.243 153.211 217.274 151.544 218.469L142.644 224.851C139.91 226.812 139.91 230.884 142.644 232.843L151.403 239.122C153.097 240.338 155.373 240.348 157.079 239.146L166.325 232.637C169.138 230.656 169.097 226.467 166.248 224.542H166.246Z" fill="white" stroke="#DFAE42" stroke-width="2" stroke-miterlimit="10"/>
<path opacity="0.77" d="M168.668 226.193C168.494 226.434 168.28 226.572 168.019 226.766C167.081 227.467 166.098 228.116 165.14 228.791C164.541 229.212 163.784 229.559 163.044 229.297C162.748 229.192 162.516 229.025 162.277 228.824C162.001 228.592 158.62 225.795 158.586 225.827C158.153 225.404 157.69 224.953 157.24 224.548C156.086 223.516 154.115 223.772 152.892 224.628C152.892 224.628 150.444 226.339 150.443 226.341L147.048 228.715C146.257 229.269 145.257 229.38 144.384 229.055C144.107 228.952 143.844 228.806 143.603 228.617L142.832 228.008L141.503 226.927L141.354 226.804L140.648 226.228C140.6 226.188 140.556 226.15 140.515 226.109C140.429 226.024 140.352 225.933 140.285 225.832C140.222 225.737 140.168 225.638 140.127 225.535C140.108 225.493 140.097 225.454 140.085 225.412C140.073 225.384 140.066 225.354 140.058 225.324C139.994 225.084 139.983 224.833 140.025 224.588C140.026 224.58 140.03 224.573 140.03 224.561C140.086 224.298 140.247 224.067 140.468 223.908C141.528 223.133 144.981 220.614 144.981 220.614L149.167 217.565L152.464 215.162C153.506 214.402 154.926 214.402 155.969 215.162L160.449 218.427C160.449 218.427 162.834 220.164 162.835 220.164C164.165 221.07 165.494 221.974 166.824 222.879C167.314 223.213 167.805 223.546 168.297 223.878C168.454 223.984 168.613 224.094 168.722 224.248C168.83 224.404 168.877 224.593 168.921 224.777C168.964 224.954 169.006 225.135 168.999 225.318C168.989 225.555 168.896 225.779 168.789 225.991C168.752 226.066 168.712 226.13 168.668 226.19V226.193Z" fill="white" stroke="#DFAE42" stroke-width="2" stroke-miterlimit="10"/>
<path opacity="0.77" d="M159.685 219.57C159.643 219.607 159.599 219.642 159.553 219.675L159.277 219.881L158.879 220.178L155.792 222.486C155.055 223.035 154.056 223.004 153.356 222.411L150.308 219.83L149.934 219.514L149.443 219.096C149.396 219.054 149.35 219.014 149.308 218.971C149.303 218.965 149.298 218.96 149.293 218.955C148.66 218.3 148.773 217.204 149.496 216.655L152.204 214.6C153.259 213.8 154.696 213.8 155.753 214.6L159.606 217.522C160.262 218.02 160.301 219.019 159.685 219.572V219.57Z" fill="white" stroke="#DFAE42" stroke-width="2" stroke-miterlimit="10"/>
<path opacity="0.77" d="M159.4 234.032L158.741 234.511L155.723 236.708C155.003 237.231 154.027 237.201 153.342 236.637L150.364 234.18L149.518 233.48C149.472 233.442 149.427 233.402 149.386 233.361C148.608 232.594 148.754 231.29 149.627 230.635L153.377 227.828C153.412 227.803 153.455 227.776 153.504 227.751C153.963 227.52 154.515 227.583 154.932 227.886L159.358 231.102L159.378 231.117C160.291 231.802 160.394 233.188 159.529 233.931C159.487 233.966 159.446 233.999 159.401 234.032H159.4Z" fill="white" stroke="#DFAE42" stroke-width="2" stroke-miterlimit="10"/>
<path opacity="0.77" d="M150.21 226.275C149.924 226.583 149.546 226.795 149.209 227.037C148.646 227.442 148.077 227.845 147.512 228.249C147.256 228.432 147 228.61 146.747 228.798C146.466 229.007 146.172 229.213 145.837 229.315C145.464 229.428 145.056 229.405 144.689 229.269C144.287 229.12 143.949 228.848 143.625 228.569C143.289 228.281 142.944 228.011 142.601 227.733C141.933 227.194 141.266 226.655 140.597 226.117C140.402 225.96 140.2 225.795 140.094 225.564C139.994 225.343 139.992 225.09 140.007 224.847C140.022 224.586 140.053 224.319 140.174 224.09C140.299 223.854 140.509 223.679 140.724 223.528C141.064 223.29 141.388 223.039 141.718 222.789C142.336 222.321 142.956 221.852 143.574 221.385C143.863 221.166 144.152 220.948 144.441 220.729C144.795 220.462 145.28 220.429 145.642 220.684C145.644 220.684 145.647 220.688 145.649 220.69L147.122 221.741C147.856 222.263 148.578 222.809 149.32 223.316C149.637 223.532 149.975 223.73 150.23 224.027C150.453 224.285 150.6 224.612 150.641 224.956C150.683 225.3 150.615 225.657 150.446 225.954C150.379 226.074 150.298 226.179 150.208 226.276L150.21 226.275Z" fill="white" stroke="#DFAE42" stroke-width="2" stroke-linecap="round" stroke-linejoin="round"/>
<path opacity="0.77" d="M168.558 226.276C168.272 226.583 167.893 226.796 167.558 227.039C166.993 227.445 166.427 227.846 165.861 228.25C165.605 228.433 165.348 228.611 165.096 228.799C164.815 229.008 164.521 229.213 164.186 229.315C163.811 229.429 163.404 229.404 163.037 229.268C162.636 229.119 162.297 228.846 161.973 228.569C161.637 228.28 161.291 228.01 160.949 227.733C160.281 227.193 159.614 226.655 158.945 226.117C158.749 225.959 158.547 225.795 158.442 225.563C158.342 225.343 158.34 225.09 158.354 224.847C158.369 224.587 158.4 224.32 158.521 224.09C158.646 223.856 158.855 223.679 159.072 223.529C159.411 223.29 159.735 223.039 160.065 222.789L161.921 221.385C162.21 221.167 162.499 220.947 162.788 220.729C163.142 220.462 163.628 220.429 163.988 220.684C163.99 220.686 163.994 220.687 163.995 220.689L165.47 221.741C166.203 222.264 166.925 222.809 167.668 223.316C167.985 223.532 168.322 223.73 168.578 224.027C168.8 224.285 168.949 224.612 168.989 224.956C169.031 225.298 168.962 225.655 168.793 225.954C168.727 226.073 168.645 226.179 168.555 226.276H168.558Z" fill="white" stroke="#DFAE42" stroke-width="2" stroke-linecap="round" stroke-linejoin="round"/>
</svg>
