<svg width="42" height="23" viewBox="0 0 42 23" fill="none" xmlns="http://www.w3.org/2000/svg">
<g opacity="0.77">
<path d="M41.3777 17.4434C40.9756 17.8929 40.4418 18.2049 39.9691 18.561C39.1743 19.1554 38.3771 19.7424 37.5799 20.3343C37.2201 20.6021 36.858 20.8624 36.5029 21.1375C36.1078 21.4445 35.694 21.7442 35.2213 21.894C34.6945 22.061 34.1207 22.0242 33.6034 21.8252C33.039 21.6066 32.5616 21.2063 32.1054 20.801C31.6328 20.3786 31.146 19.9831 30.6639 19.5778C29.7233 18.787 28.785 17.9985 27.842 17.2101C27.5669 16.9792 27.2823 16.7385 27.1342 16.3996C26.9931 16.0778 26.9907 15.7069 27.0096 15.3508C27.0307 14.9701 27.0754 14.5796 27.2447 14.2431C27.4211 13.8992 27.715 13.6413 28.0207 13.4203C28.4981 13.0715 28.9543 12.7031 29.4199 12.3371L32.0325 10.2813C32.4394 9.96198 32.8462 9.64022 33.253 9.32092C33.7515 8.93039 34.4358 8.88127 34.9438 9.25461C34.9461 9.25706 34.9509 9.25952 34.9532 9.26198L37.0297 10.802C38.062 11.5683 39.0779 12.3666 40.1243 13.1083C40.5711 13.4252 41.0462 13.715 41.4059 14.1497C41.7187 14.528 41.928 15.0069 41.9844 15.5104C42.0432 16.0115 41.9468 16.5347 41.7093 16.9719C41.6152 17.1462 41.5 17.301 41.373 17.4434H41.3777Z" fill="#F45722"/>
<path d="M28.8148 8.96914C28.4126 9.41862 27.8788 9.73055 27.4062 10.0867C26.6113 10.6811 25.8141 11.2681 25.0169 11.86C24.6572 12.1278 24.295 12.3881 23.9399 12.6632C23.5449 12.9702 23.131 13.2699 22.6583 13.4197C22.1316 13.5867 21.5578 13.5499 21.0404 13.3509C20.476 13.1323 19.9987 12.732 19.5425 12.3267C19.0698 11.9043 18.583 11.5088 18.1009 11.1035C17.1603 10.3127 16.222 9.52424 15.279 8.73581C15.0039 8.50493 14.7194 8.26422 14.5712 7.92527C14.4301 7.60352 14.4278 7.23264 14.4466 6.8765C14.4677 6.49579 14.5124 6.10526 14.6817 5.76877C14.8581 5.42491 15.1521 5.16701 15.4578 4.94595C15.9351 4.59718 16.3913 4.22876 16.8569 3.86279L19.4696 1.80699C19.8764 1.48769 20.2832 1.16593 20.69 0.846628C21.1886 0.456099 21.8729 0.406978 22.3808 0.780314C22.3832 0.78277 22.3879 0.785226 22.3902 0.787682L24.4667 2.32769C25.499 3.09401 26.5149 3.89227 27.5614 4.63403C28.0082 4.95087 28.4832 5.24069 28.843 5.67543C29.1557 6.05368 29.365 6.53263 29.4215 7.03615C29.4803 7.5372 29.3838 8.06037 29.1463 8.49756C29.0523 8.67195 28.937 8.82668 28.8101 8.96914H28.8148Z" fill="#F45722"/>
<path d="M15.3726 17.5098C14.9705 17.9592 14.4367 18.2712 13.964 18.6273C13.1692 19.2217 12.372 19.8087 11.5748 20.4007C11.215 20.6684 10.8528 20.9287 10.4978 21.2038C10.1027 21.5108 9.68881 21.8105 9.21614 21.9603C8.68939 22.1273 8.1156 22.0905 7.59825 21.8915C7.03387 21.6729 6.5565 21.2726 6.10029 20.8673C5.62763 20.4449 5.14085 20.0494 4.65877 19.6442C3.71814 18.8533 2.77986 18.0648 1.83687 17.2764C1.56174 17.0455 1.27719 16.8048 1.12904 16.4659C0.987948 16.1441 0.985597 15.7732 1.00441 15.4171C1.02557 15.0364 1.07025 14.6459 1.23957 14.3094C1.41594 13.9655 1.70989 13.7076 2.01559 13.4866C2.49297 13.1378 2.94917 12.7694 3.41478 12.4034L6.0274 10.3476C6.43422 10.0283 6.84104 9.70654 7.24787 9.38724C7.7464 8.99671 8.43071 8.94759 8.93865 9.32092C8.941 9.32338 8.94571 9.32584 8.94806 9.32829L11.0245 10.8683C12.0569 11.6346 13.0727 12.4329 14.1192 13.1746C14.566 13.4915 15.041 13.7813 15.4008 14.216C15.7136 14.5943 15.9229 15.0732 15.9793 15.5768C16.0381 16.0778 15.9417 16.601 15.7042 17.0382C15.6101 17.2126 15.4949 17.3673 15.3679 17.5098H15.3726Z" fill="#F45722"/>
</g>
</svg>
