<svg width="303" height="167" viewBox="0 0 303 167" fill="none" xmlns="http://www.w3.org/2000/svg">
<path d="M302.973 97.0336C302.9 96.6945 302.796 96.3633 302.661 96.044C302.543 95.7393 302.404 95.4435 302.244 95.1586C302.029 94.8575 301.785 94.5783 301.515 94.3252C301.373 94.1387 301.216 93.9648 301.046 93.8044L263.597 64.637L263.024 64.3766C262.746 64.1599 262.427 64.0005 262.087 63.9078C261.726 63.8333 261.354 63.8333 260.993 63.9078C260.803 63.8844 260.61 63.8844 260.42 63.9078H228.492L235.263 5.93773C235.352 5.21063 235.287 4.47311 235.072 3.7731C234.856 3.07308 234.496 2.4262 234.013 1.87514C233.529 1.29388 232.924 0.82512 232.241 0.501154C231.557 0.177709 230.811 0.00634615 230.055 9.60019e-05H90.3641C89.0765 -0.00771668 87.8317 0.461566 86.8697 1.31784C85.9077 2.17411 85.2973 3.3559 85.1556 4.63562L84.2181 13.0212H17.8103C16.4289 13.0212 15.1041 13.5702 14.1273 14.5468C13.1506 15.5234 12.6018 16.8484 12.6018 18.2297C12.6018 19.611 13.1506 20.936 14.1273 21.9126C15.1041 22.8897 16.4289 23.4381 17.8103 23.4381H83.0201L80.9888 41.0427H32.9148C31.5334 41.0427 30.2087 41.5917 29.2319 42.5683C28.2551 43.5448 27.7064 44.8699 27.7064 46.2512C27.7064 47.6324 28.2551 48.9575 29.2319 49.9341C30.2087 50.9112 31.5334 51.4596 32.9148 51.4596H79.7909L77.7596 69.0121H6.09127C4.70988 69.0121 3.38511 69.5611 2.40832 70.5377C1.43158 71.5143 0.882812 72.8393 0.882812 74.2206C0.882812 75.6018 1.43158 76.9269 2.40832 77.9035C3.38511 78.8806 4.70988 79.429 6.09127 79.429H76.5617L74.5304 97.0336H25.623C24.2416 97.0336 22.9168 97.5826 21.94 98.5592C20.9633 99.5357 20.4145 100.861 20.4145 102.242C20.4145 103.623 20.9633 104.948 21.94 105.925C22.9168 106.902 24.2416 107.451 25.623 107.451H65.5197C64.878 107.776 64.3103 108.231 63.8535 108.787C63.3962 109.343 63.0593 109.987 62.8634 110.68L59.1654 125.003H12.6018C11.2204 125.003 9.89568 125.552 8.91889 126.529C7.94214 127.505 7.39338 128.83 7.39338 130.211C7.39338 131.593 7.94214 132.918 8.91889 133.894C9.89568 134.871 11.2204 135.42 12.6018 135.42H56.457L54.6341 142.399C54.4387 143.168 54.4221 143.971 54.5846 144.747C54.7471 145.524 55.0846 146.252 55.5716 146.879C56.057 147.509 56.6799 148.02 57.393 148.372C58.1065 148.724 58.8909 148.908 59.6863 148.91H87.4994C88.076 151.522 89.1166 154.009 90.5724 156.254H6.09127C4.70988 156.254 3.38511 156.803 2.40832 157.779C1.43158 158.756 0.882812 160.081 0.882812 161.462C0.882812 162.843 1.43158 164.169 2.40832 165.145C3.38511 166.122 4.70988 166.671 6.09127 166.671H165.939C167.32 166.671 168.645 166.122 169.622 165.145C170.598 164.169 171.147 162.843 171.147 161.462C171.147 160.081 170.598 158.756 169.622 157.779C168.645 156.803 167.32 156.254 165.939 156.254H128.802C130.268 154.053 131.31 151.597 131.875 149.014H230.055C230.601 151.57 231.569 154.016 232.919 156.254H189.793C188.412 156.254 187.087 156.803 186.111 157.779C185.134 158.756 184.585 160.081 184.585 161.462C184.585 162.843 185.134 164.169 186.111 165.145C187.087 166.122 188.412 166.671 189.793 166.671H252.295C257.44 166.653 262.43 164.901 266.457 161.697C270.483 158.493 273.311 154.025 274.483 149.014H289.744C290.977 149.034 292.178 148.616 293.131 147.834C294.085 147.052 294.73 145.957 294.952 144.743L302.973 98.9607C302.999 98.7185 302.999 98.4743 302.973 98.2315C303.008 97.8331 303.008 97.4321 302.973 97.0336ZM224.169 10.417L213.023 106.773H83.8535L94.9996 10.417H224.169ZM71.9782 117.19H211.2L209.742 138.493H131.928C130.756 133.481 127.923 129.012 123.89 125.813C119.857 122.614 114.861 120.873 109.713 120.873C104.566 120.873 99.5695 122.614 95.5366 125.813C91.5037 129.012 88.6713 133.481 87.4994 138.493H66.6656L71.9782 117.19ZM97.2392 143.701C97.2392 140.4 98.5507 137.233 100.885 134.899C103.22 132.565 106.386 131.253 109.687 131.253C112.989 131.253 116.155 132.565 118.49 134.899C120.824 137.233 122.136 140.4 122.136 143.701C122.136 147.003 120.824 150.169 118.49 152.504C116.155 154.838 112.989 156.15 109.687 156.15C106.386 156.15 103.22 154.838 100.885 152.504C98.5507 150.169 97.2392 147.003 97.2392 143.701ZM252.087 156.254C249.625 156.254 247.218 155.523 245.171 154.156C243.124 152.788 241.528 150.844 240.586 148.569C239.644 146.295 239.397 143.792 239.877 141.377C240.358 138.962 241.544 136.744 243.284 135.003C245.025 133.263 247.243 132.077 249.658 131.596C252.073 131.116 254.576 131.363 256.85 132.305C259.125 133.247 261.069 134.843 262.437 136.89C263.805 138.937 264.535 141.343 264.535 143.806C264.521 147.103 263.205 150.261 260.874 152.593C258.542 154.924 255.384 156.24 252.087 156.254ZM285.16 138.597H274.275C273.103 133.585 270.27 129.116 266.237 125.917C262.205 122.718 257.208 120.977 252.061 120.977C246.913 120.977 241.917 122.718 237.884 125.917C233.851 129.116 231.018 133.585 229.846 138.597H220.419L227.503 73.9601H258.753L292.296 100.002L285.16 138.597Z" fill="#6C63FF"/>
<svg x="240" y="80" width="37" height="34" viewBox="0 0 37 34" fill="none" xmlns="http://www.w3.org/2000/svg">
<path d="M31.6064 23.375H10.7872V5.3125C10.7872 3.90362 10.2192 2.55212 9.20741 1.55603C8.19611 0.559938 6.82396 0 5.39359 0C3.96321 0 2.59108 0.559938 1.57978 1.55603C0.568484 2.55212 0 3.90362 0 5.3125V28.6875C0 30.0964 0.568484 31.4479 1.57978 32.444C2.59108 33.4401 3.96321 34 5.39359 34H31.6064C33.0368 34 34.4089 33.4401 35.4202 32.444C36.4321 31.4479 37 30.0964 37 28.6875C37 27.2786 36.4321 25.9271 35.4202 24.931C34.4089 23.9349 33.0368 23.375 31.6064 23.375Z" fill="#FCD3BB"/>
</svg>
<svg x="130" y="35" width="53" height="47" viewBox="0 0 53 47" fill="none" xmlns="http://www.w3.org/2000/svg">
<path d="M46.3432 18.8125L30.9623 8.41951C28.0914 6.48029 24.3195 6.53169 21.5028 8.55089L6.46392 19.3352C1.84536 22.6481 1.84536 29.5282 6.46392 32.8383L21.2633 43.4484C24.1257 45.5019 27.9716 45.519 30.8539 43.4884L46.4772 32.4899C51.2298 29.1427 51.1614 22.0655 46.3461 18.8125H46.3432Z" fill="white" stroke="#FCD3BB" stroke-width="3" stroke-miterlimit="10"/>
<path opacity="0.77" d="M50.4394 21.6028C50.1455 22.0092 49.7838 22.2418 49.3431 22.5697C47.758 23.7552 46.0966 24.851 44.4776 25.9916C43.466 26.7035 42.1861 27.2892 40.9372 26.8464C40.4371 26.6699 40.0444 26.3868 39.6403 26.0477C39.1741 25.6553 33.461 20.9301 33.4045 20.9834C32.6727 20.2687 31.89 19.5064 31.13 18.8226C29.1804 17.0794 25.8491 17.511 23.7837 18.9571C23.7837 18.9571 19.6472 21.8494 19.6444 21.8522L13.9086 25.8627C12.5722 26.7988 10.8825 26.9866 9.40761 26.4373C8.93858 26.2635 8.49497 26.0169 8.0881 25.6974L6.78555 24.6688L4.53929 22.8415L4.28782 22.6341L3.09547 21.6616C3.01353 21.5944 2.94006 21.5299 2.86943 21.4598C2.72533 21.3169 2.59535 21.1628 2.48233 20.9918C2.37497 20.8321 2.28455 20.6639 2.21391 20.4901C2.18283 20.4201 2.16306 20.3528 2.14328 20.2827C2.1235 20.2351 2.1122 20.1847 2.09807 20.1342C1.9907 19.7278 1.97092 19.3046 2.04156 18.8899C2.04438 18.8758 2.05004 18.8646 2.05004 18.845C2.1461 18.3994 2.41735 18.0098 2.79031 17.7408C4.58167 16.432 10.4163 12.1748 10.4163 12.1748L17.4885 7.02365L23.0604 2.96269C24.8207 1.6791 27.2195 1.6791 28.9826 2.96269L36.5521 8.48101C36.5521 8.48101 40.5812 11.4153 40.584 11.4153C42.8303 12.9455 45.0766 14.473 47.3228 16.0032C48.1507 16.5665 48.9814 17.1298 49.8121 17.6903C50.0777 17.8697 50.3461 18.0547 50.5298 18.3153C50.7134 18.5788 50.7925 18.8983 50.866 19.2094C50.9395 19.5092 51.0101 19.8147 50.9988 20.123C50.9818 20.5238 50.8236 20.9021 50.6428 21.2609C50.5806 21.387 50.5128 21.4963 50.4394 21.5972V21.6028Z" fill="white" stroke="#FCD3BB" stroke-width="3" stroke-miterlimit="10"/>
<path opacity="0.77" d="M35.2589 11.4111C35.1873 11.4732 35.113 11.5322 35.0357 11.5883L34.5695 11.9367L33.8973 12.4386L28.6801 16.3389C27.4358 17.266 25.7482 17.2129 24.564 16.2119L19.4154 11.8511L18.7833 11.3167L17.9538 10.611C17.8737 10.5402 17.7965 10.4723 17.725 10.3984C17.7164 10.3896 17.7078 10.3807 17.6992 10.3719C16.6294 9.26467 16.8211 7.41344 18.0425 6.48635L22.619 3.01419C24.401 1.66194 26.8294 1.66194 28.6143 3.01419L35.1244 7.9508C36.2342 8.79227 36.3 10.4811 35.2589 11.4141V11.4111Z" fill="white" stroke="#FCD3BB" stroke-width="3" stroke-miterlimit="10"/>
<path opacity="0.77" d="M34.7764 34.8495L33.6637 35.6588L28.5643 39.3708C27.3481 40.2532 25.6986 40.2026 24.5412 39.25L19.5088 35.0996L18.0802 33.9165C18.0019 33.8519 17.9264 33.7845 17.8565 33.7142C16.5425 32.4188 16.7886 30.2157 18.2647 29.1086L24.5999 24.3653C24.6586 24.3231 24.7313 24.2782 24.8152 24.236C25.5896 23.8454 26.5234 23.9522 27.2279 24.4636L34.7065 29.8982L34.7401 29.9235C36.2833 31.0812 36.4567 33.422 34.9945 34.6781C34.9246 34.7371 34.8547 34.7933 34.7792 34.8495H34.7764Z" fill="white" stroke="#FCD3BB" stroke-width="3" stroke-miterlimit="10"/>
<path opacity="0.77" d="M19.2515 21.7407C18.7686 22.2614 18.1293 22.6201 17.5599 23.0281C16.608 23.7137 15.6477 24.3935 14.6931 25.0763C14.2604 25.3858 13.8277 25.6867 13.4006 26.0049C12.9261 26.3579 12.4292 26.705 11.8625 26.8786C11.2317 27.0696 10.5422 27.0291 9.92247 26.8005C9.24415 26.5488 8.6719 26.0888 8.12478 25.6173C7.55811 25.1313 6.9747 24.6742 6.39408 24.2055C5.26633 23.2942 4.13859 22.3829 3.00805 21.4745C2.67866 21.2084 2.3381 20.9306 2.15944 20.5401C1.98917 20.1669 1.98637 19.7387 2.0115 19.3279C2.03662 18.8882 2.08966 18.4369 2.29343 18.0492C2.50558 17.65 2.8601 17.3549 3.22299 17.1003C3.79803 16.6982 4.34515 16.2729 4.90344 15.8505C5.94745 15.0608 6.99424 14.2681 8.03824 13.4783C8.52675 13.108 9.01525 12.7406 9.50375 12.3703C10.1011 11.919 10.9218 11.864 11.5331 12.2951C11.5359 12.2951 11.5415 12.3009 11.5443 12.3038L14.0343 14.08C15.2737 14.9624 16.4936 15.8853 17.7469 16.7416C18.2829 17.1061 18.8551 17.4417 19.285 17.9422C19.6618 18.379 19.9103 18.9316 19.9801 19.5131C20.0499 20.0946 19.9354 20.6963 19.6507 21.1997C19.5362 21.4022 19.3995 21.5787 19.2487 21.7436L19.2515 21.7407Z" fill="white" stroke="#FCD3BB" stroke-width="3" stroke-linecap="round" stroke-linejoin="round"/>
<path opacity="0.77" d="M50.2518 21.7428C49.7692 22.2614 49.1287 22.6213 48.5615 23.0323C47.6077 23.7181 46.6511 24.3954 45.6944 25.0784C45.2627 25.3874 44.8281 25.6878 44.402 26.0052C43.9279 26.3594 43.4313 26.7052 42.8641 26.878C42.232 27.0708 41.5434 27.0283 40.9226 26.7987C40.2453 26.5465 39.6725 26.0845 39.125 25.6169C38.5578 25.1295 37.9737 24.6732 37.3952 24.2056C36.2665 23.293 35.1405 22.3833 34.0089 21.4736C33.6788 21.2072 33.3373 20.9294 33.1595 20.5383C32.9902 20.1671 32.9874 19.7391 33.01 19.3282C33.0354 18.8889 33.089 18.4383 33.2922 18.0501C33.5038 17.6533 33.8566 17.3557 34.2234 17.1007C34.7962 16.6982 35.3437 16.2731 35.9024 15.8508L39.0376 13.4788C39.5258 13.1103 40.0139 12.7391 40.5021 12.3707C41.1004 11.92 41.9215 11.8634 42.5311 12.2941C42.5339 12.297 42.5395 12.2998 42.5424 12.3026L45.0341 14.0796C46.2729 14.9638 47.492 15.8849 48.7477 16.7407C49.2839 17.1063 49.8539 17.4407 50.2857 17.9424C50.661 18.3788 50.9121 18.9314 50.9798 19.5124C51.0504 20.0906 50.9347 20.6942 50.6497 21.1987C50.5368 21.3999 50.3985 21.5784 50.2462 21.7428H50.2518Z" fill="white" stroke="#FCD3BB" stroke-width="3" stroke-linecap="round" stroke-linejoin="round"/>
</svg>

</svg>
