<svg width="264" height="265" viewBox="0 0 264 265" fill="none" xmlns="http://www.w3.org/2000/svg">
<path d="M247.5 219.172H16.5C15.406 219.172 14.3568 218.737 13.5832 217.964C12.8096 217.19 12.375 216.141 12.375 215.047V190.297C12.375 189.203 12.8096 188.154 13.5832 187.38C14.3568 186.606 15.406 186.172 16.5 186.172H247.5C248.594 186.172 249.643 186.606 250.417 187.38C251.19 188.154 251.625 189.203 251.625 190.297V215.047C251.625 216.141 251.19 217.19 250.417 217.964C249.643 218.737 248.594 219.172 247.5 219.172ZM20.625 210.922H243.375V194.422H20.625V210.922Z" fill="#6C63FF"/>
<path d="M82.5 252.172H33C31.906 252.172 30.8568 251.737 30.0832 250.964C29.3096 250.19 28.875 249.141 28.875 248.047V215.047C28.875 213.953 29.3096 212.904 30.0832 212.13C30.8568 211.356 31.906 210.922 33 210.922H82.5C83.594 210.922 84.6432 211.356 85.4168 212.13C86.1904 212.904 86.625 213.953 86.625 215.047V248.047C86.625 249.141 86.1904 250.19 85.4168 250.964C84.6432 251.737 83.594 252.172 82.5 252.172ZM37.125 243.922H78.375V219.172H37.125V243.922Z" fill="#6C63FF"/>
<path d="M231 252.172H181.5C180.406 252.172 179.357 251.737 178.583 250.964C177.81 250.19 177.375 249.141 177.375 248.047V215.047C177.375 213.953 177.81 212.904 178.583 212.13C179.357 211.356 180.406 210.922 181.5 210.922H231C232.094 210.922 233.143 211.356 233.917 212.13C234.69 212.904 235.125 213.953 235.125 215.047V248.047C235.125 249.141 234.69 250.19 233.917 250.964C233.143 251.737 232.094 252.172 231 252.172ZM185.625 243.922H226.875V219.172H185.625V243.922Z" fill="#6C63FF"/>
<path d="M132 50.0469C130.906 50.0469 129.857 49.6123 129.083 48.8387C128.31 48.0651 127.875 47.0159 127.875 45.9219V21.1719C127.875 20.0779 128.31 19.0286 129.083 18.2551C129.857 17.4815 130.906 17.0469 132 17.0469C133.094 17.0469 134.143 17.4815 134.917 18.2551C135.69 19.0286 136.125 20.0779 136.125 21.1719V45.9219C136.125 47.0159 135.69 48.0651 134.917 48.8387C134.143 49.6123 133.094 50.0469 132 50.0469Z" fill="#6C63FF"/>
<path d="M152.625 177.922H111.375C110.281 177.922 109.232 177.487 108.458 176.714C107.685 175.94 107.25 174.891 107.25 173.797V132.547C107.25 131.453 107.685 130.404 108.458 129.63C109.232 128.856 110.281 128.422 111.375 128.422H152.625C153.719 128.422 154.768 128.856 155.542 129.63C156.315 130.404 156.75 131.453 156.75 132.547V173.797C156.75 174.891 156.315 175.94 155.542 176.714C154.768 177.487 153.719 177.922 152.625 177.922ZM115.5 169.672H148.5V136.672H115.5V169.672Z" fill="#EFD7A0"/>
<path d="M226.875 177.922H185.625C184.531 177.922 183.482 177.487 182.708 176.714C181.935 175.94 181.5 174.891 181.5 173.797V132.547C181.5 131.453 181.935 130.404 182.708 129.63C183.482 128.856 184.531 128.422 185.625 128.422H226.875C227.969 128.422 229.018 128.856 229.792 129.63C230.565 130.404 231 131.453 231 132.547V173.797C231 174.891 230.565 175.94 229.792 176.714C229.018 177.487 227.969 177.922 226.875 177.922ZM189.75 169.672H222.75V136.672H189.75V169.672Z" fill="#EFD7A0"/>
<path d="M78.375 177.922H37.125C36.031 177.922 34.9818 177.487 34.2082 176.714C33.4346 175.94 33 174.891 33 173.797V132.547C33 131.453 33.4346 130.404 34.2082 129.63C34.9818 128.856 36.031 128.422 37.125 128.422H78.375C79.469 128.422 80.5182 128.856 81.2918 129.63C82.0654 130.404 82.5 131.453 82.5 132.547V173.797C82.5 174.891 82.0654 175.94 81.2918 176.714C80.5182 177.487 79.469 177.922 78.375 177.922ZM41.25 169.672H74.25V136.672H41.25V169.672Z" fill="#EFD7A0"/>
<path d="M111.375 107.797C110.735 107.797 110.103 107.648 109.53 107.361C108.957 107.075 108.459 106.659 108.075 106.147L83.325 73.1469C82.6686 72.2717 82.3868 71.1715 82.5415 70.0885C82.6962 69.0055 83.2748 68.0283 84.15 67.3719C85.0252 66.7155 86.1254 66.4336 87.2084 66.5883C88.2914 66.7431 89.2686 67.3217 89.925 68.1969L114.675 101.197C115 101.63 115.237 102.123 115.371 102.648C115.505 103.173 115.535 103.719 115.459 104.255C115.382 104.792 115.2 105.307 114.924 105.774C114.648 106.24 114.283 106.647 113.85 106.972C113.136 107.507 112.268 107.797 111.375 107.797Z" fill="#6C63FF"/>
<path d="M86.6302 74.7981C85.7102 74.8027 84.8151 74.4997 84.0872 73.9372C83.3592 73.3747 82.8402 72.585 82.6126 71.6936C82.385 70.8022 82.4619 69.8603 82.8311 69.0177C83.2003 68.1751 83.8406 67.48 84.6502 67.0431L130.025 42.2931C130.502 42.0222 131.027 41.8479 131.571 41.7801C132.115 41.7123 132.667 41.7523 133.196 41.8979C133.725 42.0434 134.219 42.2917 134.652 42.6284C135.085 42.9652 135.447 43.3839 135.718 43.8606C135.989 44.3373 136.163 44.8626 136.231 45.4067C136.298 45.9508 136.258 46.5029 136.113 47.0315C135.967 47.5601 135.719 48.0548 135.382 48.4875C135.046 48.9201 134.627 49.2822 134.15 49.5531L88.7752 74.3031C88.1183 74.6593 87.3768 74.8304 86.6302 74.7981Z" fill="#6C63FF"/>
<path d="M152.625 107.797C151.732 107.797 150.864 107.507 150.15 106.972C149.275 106.315 148.696 105.338 148.541 104.255C148.387 103.172 148.669 102.072 149.325 101.197L174.075 68.1969C174.731 67.3217 175.709 66.7431 176.792 66.5883C177.875 66.4336 178.975 66.7155 179.85 67.3719C180.725 68.0283 181.304 69.0055 181.459 70.0885C181.613 71.1715 181.331 72.2717 180.675 73.1469L155.925 106.147C155.541 106.659 155.043 107.075 154.47 107.361C153.897 107.648 153.265 107.797 152.625 107.797Z" fill="#6C63FF"/>
<path d="M177.374 74.7981C176.683 74.8015 176.002 74.6313 175.394 74.3031L130.019 49.5531C129.542 49.2822 129.123 48.9201 128.787 48.4875C128.45 48.0548 128.202 47.5601 128.056 47.0315C127.911 46.5029 127.87 45.9508 127.938 45.4067C128.006 44.8626 128.18 44.3373 128.451 43.8606C128.722 43.3839 129.084 42.9652 129.517 42.6284C129.95 42.2917 130.444 42.0434 130.973 41.8979C131.501 41.7523 132.054 41.7123 132.598 41.7801C133.142 41.8479 133.667 42.0222 134.144 42.2931L179.519 67.0431C180.343 67.4856 180.993 68.1952 181.361 69.0554C181.729 69.9157 181.793 70.8755 181.544 71.7773C181.294 72.6791 180.746 73.4693 179.988 74.0182C179.23 74.5671 178.308 74.8421 177.374 74.7981Z" fill="#6C63FF"/>
<path d="M222.75 21.1719H41.25C40.156 21.1719 39.1068 20.7373 38.3332 19.9637C37.5596 19.1901 37.125 18.1409 37.125 17.0469C37.125 15.9529 37.5596 14.9036 38.3332 14.1301C39.1068 13.3565 40.156 12.9219 41.25 12.9219H222.75C223.844 12.9219 224.893 13.3565 225.667 14.1301C226.44 14.9036 226.875 15.9529 226.875 17.0469C226.875 18.1409 226.44 19.1901 225.667 19.9637C224.893 20.7373 223.844 21.1719 222.75 21.1719Z" fill="#6C63FF"/>
<path d="M216.719 150.992L208.492 145.433C206.956 144.396 204.939 144.423 203.432 145.503L195.388 151.272C192.918 153.044 192.918 156.724 195.388 158.494L203.304 164.169C204.835 165.268 206.892 165.277 208.434 164.191L216.79 158.308C219.332 156.518 219.296 152.732 216.72 150.992H216.719Z" fill="white" stroke="#EFD7A0" stroke-width="2" stroke-miterlimit="10"/>
<path opacity="0.77" d="M218.909 152.485C218.752 152.703 218.559 152.827 218.323 153.002C217.475 153.636 216.587 154.223 215.721 154.833C215.18 155.213 214.495 155.527 213.827 155.29C213.559 155.196 213.349 155.044 213.133 154.863C212.884 154.653 209.828 152.125 209.798 152.154C209.406 151.772 208.988 151.364 208.581 150.998C207.538 150.066 205.757 150.297 204.652 151.07C204.652 151.07 202.439 152.617 202.438 152.619L199.37 154.764C198.655 155.264 197.751 155.365 196.962 155.071C196.711 154.978 196.474 154.846 196.256 154.675L195.56 154.125L194.358 153.148L194.224 153.037L193.586 152.517C193.542 152.481 193.503 152.446 193.465 152.409C193.388 152.332 193.318 152.25 193.258 152.158C193.201 152.073 193.152 151.983 193.114 151.89C193.098 151.853 193.087 151.817 193.077 151.779C193.066 151.754 193.06 151.727 193.052 151.7C192.995 151.482 192.984 151.256 193.022 151.034C193.024 151.027 193.027 151.021 193.027 151.01C193.078 150.772 193.223 150.563 193.423 150.419C194.381 149.719 197.502 147.442 197.502 147.442L201.285 144.687L204.265 142.515C205.206 141.828 206.489 141.828 207.433 142.515L211.481 145.467C211.481 145.467 213.636 147.036 213.638 147.036C214.839 147.855 216.041 148.672 217.242 149.49C217.685 149.791 218.13 150.093 218.574 150.393C218.716 150.488 218.86 150.587 218.958 150.727C219.056 150.868 219.098 151.039 219.138 151.205C219.177 151.365 219.215 151.529 219.209 151.694C219.2 151.908 219.115 152.11 219.018 152.302C218.985 152.37 218.949 152.428 218.909 152.482V152.485Z" fill="white" stroke="#EFD7A0" stroke-width="2" stroke-miterlimit="10"/>
<path opacity="0.77" d="M210.79 147.034C210.752 147.067 210.712 147.099 210.67 147.129L210.421 147.315L210.062 147.583L207.271 149.67C206.605 150.166 205.703 150.137 205.069 149.602L202.315 147.269L201.977 146.983L201.534 146.606C201.491 146.568 201.449 146.532 201.411 146.492C201.407 146.487 201.402 146.483 201.397 146.478C200.825 145.886 200.928 144.896 201.581 144.4L204.029 142.542C204.982 141.819 206.281 141.819 207.236 142.542L210.718 145.183C211.312 145.633 211.347 146.536 210.79 147.035V147.034Z" fill="white" stroke="#EFD7A0" stroke-width="2" stroke-miterlimit="10"/>
<path opacity="0.77" d="M210.532 159.571L209.937 160.004L207.209 161.989C206.558 162.461 205.676 162.434 205.057 161.925L202.365 159.705L201.601 159.072C201.559 159.037 201.519 159.001 201.482 158.964C200.779 158.271 200.91 157.092 201.7 156.5L205.088 153.963C205.12 153.94 205.159 153.916 205.204 153.894C205.618 153.685 206.117 153.742 206.494 154.016L210.494 156.922L210.512 156.936C211.338 157.555 211.43 158.807 210.648 159.479C210.611 159.511 210.574 159.541 210.533 159.571H210.532Z" fill="white" stroke="#EFD7A0" stroke-width="2" stroke-miterlimit="10"/>
<path opacity="0.77" d="M202.228 152.56C201.969 152.838 201.627 153.03 201.323 153.248C200.814 153.615 200.3 153.979 199.789 154.344C199.558 154.509 199.326 154.67 199.098 154.841C198.844 155.029 198.578 155.215 198.275 155.308C197.938 155.41 197.569 155.388 197.238 155.266C196.875 155.132 196.569 154.885 196.276 154.633C195.973 154.373 195.661 154.129 195.35 153.878C194.747 153.391 194.144 152.903 193.539 152.417C193.363 152.275 193.181 152.126 193.085 151.918C192.994 151.718 192.993 151.489 193.006 151.269C193.02 151.034 193.048 150.793 193.157 150.585C193.27 150.372 193.46 150.214 193.654 150.078C193.962 149.863 194.254 149.635 194.553 149.409C195.111 148.987 195.671 148.563 196.23 148.14C196.491 147.942 196.752 147.746 197.014 147.548C197.333 147.306 197.772 147.277 198.099 147.507C198.101 147.507 198.104 147.511 198.105 147.512L199.437 148.462C200.1 148.934 200.752 149.428 201.423 149.886C201.709 150.081 202.016 150.26 202.245 150.528C202.447 150.762 202.58 151.057 202.617 151.368C202.655 151.679 202.593 152.001 202.441 152.27C202.38 152.379 202.307 152.473 202.226 152.561L202.228 152.56Z" fill="white" stroke="#EFD7A0" stroke-width="2" stroke-linecap="round" stroke-linejoin="round"/>
<path opacity="0.77" d="M218.81 152.561C218.552 152.838 218.209 153.031 217.906 153.251C217.395 153.617 216.884 153.98 216.372 154.345C216.141 154.51 215.909 154.671 215.681 154.841C215.427 155.03 215.162 155.215 214.858 155.308C214.52 155.411 214.152 155.388 213.82 155.265C213.457 155.13 213.151 154.883 212.858 154.633C212.555 154.372 212.242 154.128 211.933 153.878C211.329 153.39 210.727 152.903 210.122 152.417C209.945 152.274 209.762 152.126 209.667 151.917C209.577 151.718 209.575 151.489 209.587 151.269C209.601 151.034 209.63 150.793 209.738 150.586C209.852 150.373 210.04 150.214 210.236 150.078C210.543 149.863 210.836 149.635 211.134 149.409L212.811 148.141C213.073 147.944 213.334 147.745 213.595 147.548C213.915 147.307 214.354 147.277 214.68 147.507C214.682 147.508 214.685 147.51 214.686 147.511L216.019 148.462C216.681 148.935 217.334 149.428 218.005 149.885C218.292 150.081 218.597 150.26 218.828 150.528C219.029 150.762 219.163 151.057 219.199 151.368C219.237 151.677 219.175 152 219.023 152.27C218.962 152.377 218.888 152.473 218.807 152.561H218.81Z" fill="white" stroke="#EFD7A0" stroke-width="2" stroke-linecap="round" stroke-linejoin="round"/>
<path d="M142.719 150.992L134.492 145.433C132.956 144.396 130.939 144.423 129.432 145.503L121.388 151.272C118.918 153.044 118.918 156.724 121.388 158.494L129.304 164.169C130.835 165.268 132.892 165.277 134.434 164.191L142.79 158.308C145.332 156.518 145.296 152.732 142.72 150.992H142.719Z" fill="white" stroke="#EFD7A0" stroke-width="2" stroke-miterlimit="10"/>
<path opacity="0.77" d="M144.909 152.485C144.752 152.703 144.559 152.827 144.323 153.002C143.475 153.636 142.587 154.223 141.721 154.833C141.18 155.213 140.495 155.527 139.827 155.29C139.559 155.196 139.349 155.044 139.133 154.863C138.884 154.653 135.828 152.125 135.798 152.154C135.406 151.772 134.988 151.364 134.581 150.998C133.538 150.066 131.757 150.297 130.652 151.07C130.652 151.07 128.439 152.617 128.438 152.619L125.37 154.764C124.655 155.264 123.751 155.365 122.962 155.071C122.711 154.978 122.474 154.846 122.256 154.675L121.56 154.125L120.358 153.148L120.224 153.037L119.586 152.517C119.542 152.481 119.503 152.446 119.465 152.409C119.388 152.332 119.318 152.25 119.258 152.158C119.201 152.073 119.152 151.983 119.114 151.89C119.098 151.853 119.087 151.817 119.077 151.779C119.066 151.754 119.06 151.727 119.052 151.7C118.995 151.482 118.984 151.256 119.022 151.034C119.024 151.027 119.027 151.021 119.027 151.01C119.078 150.772 119.223 150.563 119.423 150.419C120.381 149.719 123.502 147.442 123.502 147.442L127.285 144.687L130.265 142.515C131.206 141.828 132.489 141.828 133.433 142.515L137.481 145.467C137.481 145.467 139.636 147.036 139.638 147.036C140.839 147.855 142.041 148.672 143.242 149.49C143.685 149.791 144.13 150.093 144.574 150.393C144.716 150.488 144.86 150.587 144.958 150.727C145.056 150.868 145.098 151.039 145.138 151.205C145.177 151.365 145.215 151.529 145.209 151.694C145.2 151.908 145.115 152.11 145.018 152.302C144.985 152.37 144.949 152.428 144.909 152.482V152.485Z" fill="white" stroke="#EFD7A0" stroke-width="2" stroke-miterlimit="10"/>
<path opacity="0.77" d="M136.79 147.034C136.752 147.067 136.712 147.099 136.67 147.129L136.421 147.315L136.062 147.583L133.271 149.67C132.605 150.166 131.703 150.137 131.069 149.602L128.315 147.269L127.977 146.983L127.534 146.606C127.491 146.568 127.449 146.532 127.411 146.492C127.407 146.487 127.402 146.483 127.397 146.478C126.825 145.886 126.928 144.896 127.581 144.4L130.029 142.542C130.982 141.819 132.281 141.819 133.236 142.542L136.718 145.183C137.312 145.633 137.347 146.536 136.79 147.035V147.034Z" fill="white" stroke="#EFD7A0" stroke-width="2" stroke-miterlimit="10"/>
<path opacity="0.77" d="M136.532 159.571L135.937 160.004L133.209 161.989C132.558 162.461 131.676 162.434 131.057 161.925L128.365 159.705L127.601 159.072C127.559 159.037 127.519 159.001 127.482 158.964C126.779 158.271 126.91 157.092 127.7 156.5L131.088 153.963C131.12 153.94 131.159 153.916 131.204 153.894C131.618 153.685 132.117 153.742 132.494 154.016L136.494 156.922L136.512 156.936C137.338 157.555 137.43 158.807 136.648 159.479C136.611 159.511 136.574 159.541 136.533 159.571H136.532Z" fill="white" stroke="#EFD7A0" stroke-width="2" stroke-miterlimit="10"/>
<path opacity="0.77" d="M128.228 152.56C127.969 152.838 127.627 153.03 127.323 153.248C126.814 153.615 126.3 153.979 125.789 154.344C125.558 154.509 125.326 154.67 125.098 154.841C124.844 155.029 124.578 155.215 124.275 155.308C123.938 155.41 123.569 155.388 123.238 155.266C122.875 155.132 122.569 154.885 122.276 154.633C121.973 154.373 121.661 154.129 121.35 153.878C120.747 153.391 120.144 152.903 119.539 152.417C119.363 152.275 119.181 152.126 119.085 151.918C118.994 151.718 118.993 151.489 119.006 151.269C119.02 151.034 119.048 150.793 119.157 150.585C119.27 150.372 119.46 150.214 119.654 150.078C119.962 149.863 120.254 149.635 120.553 149.409C121.111 148.987 121.671 148.563 122.23 148.14C122.491 147.942 122.752 147.746 123.014 147.548C123.333 147.306 123.772 147.277 124.099 147.507C124.101 147.507 124.104 147.511 124.105 147.512L125.437 148.462C126.1 148.934 126.752 149.428 127.423 149.886C127.709 150.081 128.016 150.26 128.245 150.528C128.447 150.762 128.58 151.057 128.617 151.368C128.655 151.679 128.593 152.001 128.441 152.27C128.38 152.379 128.307 152.473 128.226 152.561L128.228 152.56Z" fill="white" stroke="#EFD7A0" stroke-width="2" stroke-linecap="round" stroke-linejoin="round"/>
<path opacity="0.77" d="M144.81 152.561C144.552 152.838 144.209 153.031 143.906 153.251C143.395 153.617 142.884 153.98 142.372 154.345C142.141 154.51 141.909 154.671 141.681 154.841C141.427 155.03 141.162 155.215 140.858 155.308C140.52 155.411 140.152 155.388 139.82 155.265C139.457 155.13 139.151 154.883 138.858 154.633C138.555 154.372 138.242 154.128 137.933 153.878C137.329 153.39 136.727 152.903 136.122 152.417C135.945 152.274 135.762 152.126 135.667 151.917C135.577 151.718 135.575 151.489 135.587 151.269C135.601 151.034 135.63 150.793 135.738 150.586C135.852 150.373 136.04 150.214 136.236 150.078C136.543 149.863 136.836 149.635 137.134 149.409L138.811 148.141C139.073 147.944 139.334 147.745 139.595 147.548C139.915 147.307 140.354 147.277 140.68 147.507C140.682 147.508 140.685 147.51 140.686 147.511L142.019 148.462C142.681 148.935 143.334 149.428 144.005 149.885C144.292 150.081 144.597 150.26 144.828 150.528C145.029 150.762 145.163 151.057 145.199 151.368C145.237 151.677 145.175 152 145.023 152.27C144.962 152.377 144.888 152.473 144.807 152.561H144.81Z" fill="white" stroke="#EFD7A0" stroke-width="2" stroke-linecap="round" stroke-linejoin="round"/>
<path d="M68.7187 150.992L60.4917 145.433C58.9561 144.396 56.9386 144.423 55.432 145.503L47.388 151.272C44.9176 153.044 44.9176 156.724 47.388 158.494L55.3039 164.169C56.8349 165.268 58.8921 165.277 60.4338 164.191L68.7904 158.308C71.3325 156.518 71.2959 152.732 68.7203 150.992H68.7187Z" fill="white" stroke="#EFD7A0" stroke-width="2" stroke-miterlimit="10"/>
<path opacity="0.77" d="M70.9094 152.485C70.7522 152.703 70.5588 152.827 70.323 153.002C69.4752 153.636 68.5865 154.223 67.7206 154.833C67.1795 155.213 66.4949 155.527 65.8269 155.29C65.5594 155.196 65.3493 155.044 65.1332 154.863C64.8838 154.653 61.828 152.125 61.7977 152.154C61.4063 151.772 60.9877 151.364 60.5811 150.998C59.5383 150.066 57.7565 150.297 56.6517 151.07C56.6517 151.07 54.4392 152.617 54.4377 152.619L51.3697 154.764C50.6549 155.264 49.7511 155.365 48.9622 155.071C48.7113 154.978 48.4741 154.846 48.2564 154.675L47.5597 154.125L46.3582 153.148L46.2237 153.037L45.5859 152.517C45.5421 152.481 45.5028 152.446 45.465 152.409C45.388 152.332 45.3184 152.25 45.258 152.158C45.2006 152.073 45.1522 151.983 45.1144 151.89C45.0978 151.853 45.0872 151.817 45.0766 151.779C45.0661 151.754 45.06 151.727 45.0525 151.7C44.995 151.482 44.9844 151.256 45.0222 151.034C45.0237 151.027 45.0268 151.021 45.0268 151.01C45.0781 150.772 45.2232 150.563 45.4227 150.419C46.3809 149.719 49.5017 147.442 49.5017 147.442L53.2845 144.687L56.2648 142.515C57.2064 141.828 58.4895 141.828 59.4325 142.515L63.4813 145.467C63.4813 145.467 65.6365 147.036 65.638 147.036C66.8395 147.855 68.041 148.672 69.2424 149.49C69.6853 149.791 70.1296 150.093 70.5739 150.393C70.716 150.488 70.8595 150.587 70.9578 150.727C71.056 150.868 71.0983 151.039 71.1376 151.205C71.1769 151.365 71.2147 151.529 71.2087 151.694C71.1996 151.908 71.115 152.11 71.0182 152.302C70.985 152.37 70.9487 152.428 70.9094 152.482V152.485Z" fill="white" stroke="#EFD7A0" stroke-width="2" stroke-miterlimit="10"/>
<path opacity="0.77" d="M62.7898 147.034C62.7516 147.067 62.7118 147.099 62.6705 147.129L62.4211 147.315L62.0615 147.583L59.2709 149.67C58.6054 150.166 57.7027 150.137 57.0693 149.602L54.3154 147.269L53.9773 146.983L53.5336 146.606C53.4908 146.568 53.4495 146.532 53.4112 146.492C53.4066 146.487 53.402 146.483 53.3974 146.478C52.8252 145.886 52.9277 144.896 53.581 144.4L56.029 142.542C56.9821 141.819 58.281 141.819 59.2357 142.542L62.7179 145.183C63.3115 145.633 63.3467 146.536 62.7898 147.035V147.034Z" fill="white" stroke="#EFD7A0" stroke-width="2" stroke-miterlimit="10"/>
<path opacity="0.77" d="M62.5317 159.571L61.9366 160.004L59.209 161.989C58.5585 162.461 57.6762 162.434 57.0571 161.925L54.3654 159.705L53.6012 159.072C53.5593 159.037 53.519 159.001 53.4816 158.964C52.7787 158.271 52.9103 157.092 53.6999 156.5L57.0885 153.963C57.1199 153.94 57.1588 153.916 57.2036 153.894C57.6179 153.685 58.1173 153.742 58.4942 154.016L62.4944 156.922L62.5123 156.936C63.3378 157.555 63.4305 158.807 62.6484 159.479C62.611 159.511 62.5736 159.541 62.5332 159.571H62.5317Z" fill="white" stroke="#EFD7A0" stroke-width="2" stroke-miterlimit="10"/>
<path opacity="0.77" d="M54.2275 152.56C53.9692 152.838 53.6273 153.03 53.3227 153.248C52.8136 153.615 52.3 153.979 51.7893 154.344C51.5579 154.509 51.3265 154.67 51.098 154.841C50.8442 155.029 50.5784 155.215 50.2753 155.308C49.9379 155.41 49.5691 155.388 49.2376 155.266C48.8748 155.132 48.5687 154.885 48.276 154.633C47.9729 154.373 47.6609 154.129 47.3503 153.878C46.7471 153.391 46.1439 152.903 45.5392 152.417C45.363 152.275 45.1808 152.126 45.0853 151.918C44.9942 151.718 44.9927 151.489 45.0061 151.269C45.0196 151.034 45.048 150.793 45.157 150.585C45.2704 150.372 45.4601 150.214 45.6542 150.078C45.9617 149.863 46.2544 149.635 46.553 149.409C47.1114 148.987 47.6713 148.563 48.2298 148.14C48.4911 147.942 48.7523 147.746 49.0136 147.548C49.3332 147.306 49.7721 147.277 50.0991 147.507C50.1006 147.507 50.1036 147.511 50.1051 147.512L51.4369 148.462C52.0999 148.934 52.7524 149.428 53.4228 149.886C53.7094 150.081 54.0155 150.26 54.2455 150.528C54.447 150.762 54.5799 151.057 54.6173 151.368C54.6546 151.679 54.5934 152.001 54.4411 152.27C54.3798 152.379 54.3067 152.473 54.2261 152.561L54.2275 152.56Z" fill="white" stroke="#EFD7A0" stroke-width="2" stroke-linecap="round" stroke-linejoin="round"/>
<path opacity="0.77" d="M70.8097 152.561C70.5516 152.838 70.209 153.031 69.9056 153.251C69.3954 153.617 68.8838 153.98 68.3721 154.345C68.1411 154.51 67.9087 154.671 67.6808 154.841C67.4272 155.03 67.1615 155.215 66.8582 155.308C66.5201 155.411 66.1518 155.388 65.8197 155.265C65.4574 155.13 65.151 154.883 64.8582 154.633C64.5548 154.372 64.2424 154.128 63.933 153.878C63.3292 153.39 62.727 152.903 62.1217 152.417C61.9451 152.274 61.7625 152.126 61.6674 151.917C61.5768 151.718 61.5753 151.489 61.5874 151.269C61.601 151.034 61.6296 150.793 61.7383 150.586C61.8515 150.373 62.0402 150.214 62.2364 150.078C62.5428 149.863 62.8356 149.635 63.1345 149.409L64.8114 148.141C65.0725 147.944 65.3337 147.745 65.5948 147.548C65.9148 147.307 66.354 147.277 66.68 147.507C66.6816 147.508 66.6846 147.51 66.6861 147.511L68.0189 148.462C68.6815 148.935 69.3336 149.428 70.0052 149.885C70.292 150.081 70.5969 150.26 70.8278 150.528C71.0286 150.762 71.1629 151.057 71.1992 151.368C71.2369 151.677 71.175 152 71.0226 152.27C70.9622 152.377 70.8882 152.473 70.8067 152.561H70.8097Z" fill="white" stroke="#EFD7A0" stroke-width="2" stroke-linecap="round" stroke-linejoin="round"/>
</svg>
