<svg width="211" height="208" viewBox="0 0 211 208" fill="none" xmlns="http://www.w3.org/2000/svg">
<path d="M3.64756 201.015C13.8754 205.374 24.8789 207.621 35.997 207.621C47.1152 207.621 58.1186 205.374 68.3465 201.015C69.1333 200.678 69.8039 200.117 70.2752 199.402C70.7464 198.687 70.9977 197.85 70.9978 196.994C71.0171 190.95 69.215 185.039 65.8265 180.034C62.438 175.028 57.6203 171.16 52.0011 168.932L49.9229 168.101C51.8976 165.506 53.1082 162.412 53.4181 159.166C53.7281 155.92 53.1252 152.653 51.6773 149.731C50.2295 146.81 47.9943 144.351 45.2237 142.632C42.4532 140.913 39.2575 140.002 35.997 140.002C32.7365 140.002 29.5408 140.913 26.7703 142.632C23.9998 144.351 21.7646 146.81 20.3167 149.731C18.8688 152.653 18.2659 155.92 18.5759 159.166C18.8859 162.412 20.0964 165.506 22.0711 168.101L19.9973 168.932C14.377 171.159 9.55793 175.027 6.16854 180.033C2.77915 185.038 0.976708 190.949 0.996251 196.994C0.996346 197.85 1.24759 198.687 1.71886 199.402C2.19014 200.117 2.86073 200.678 3.64756 201.015ZM35.997 148.868C37.7276 148.868 39.4194 149.381 40.8584 150.343C42.2973 151.304 43.4189 152.671 44.0811 154.27C44.7434 155.869 44.9167 157.628 44.5791 159.325C44.2414 161.023 43.4081 162.582 42.1843 163.806C40.9606 165.029 39.4015 165.863 37.7041 166.2C36.0067 166.538 34.2473 166.365 32.6485 165.702C31.0496 165.04 29.683 163.919 28.7215 162.48C27.76 161.041 27.2468 159.349 27.2468 157.618C27.2468 155.298 28.1687 153.072 29.8097 151.431C31.4507 149.79 33.6763 148.868 35.997 148.868ZM23.2436 177.057L28.0912 175.119H43.9028L48.7504 177.057C52.2879 178.457 55.3869 180.777 57.7268 183.777C60.0667 186.777 61.5625 190.348 62.0595 194.12C45.2636 200.464 26.7305 200.464 9.93457 194.12C10.4315 190.348 11.9273 186.777 14.2672 183.777C16.6071 180.777 19.7062 178.457 23.2436 177.057Z" fill="#6C63FF"/>
<path d="M3.64756 61.0129C13.8728 65.3808 24.878 67.6282 35.997 67.6193C47.1161 67.6282 58.1213 65.3808 68.3465 61.0129C69.1333 60.6756 69.8039 60.1149 70.2752 59.4002C70.7464 58.6855 70.9977 57.8483 70.9978 56.9922C71.0171 50.9477 69.215 45.0375 65.8265 40.032C62.438 35.0265 57.6203 31.1579 52.0011 28.9303L49.9229 28.0991C51.8976 25.5045 53.1082 22.4099 53.4181 19.1642C53.7281 15.9184 53.1252 12.6506 51.6773 9.7292C50.2295 6.80779 47.9943 4.34895 45.2237 2.62991C42.4532 0.910869 39.2575 0 35.997 0C32.7365 0 29.5408 0.910869 26.7703 2.62991C23.9998 4.34895 21.7646 6.80779 20.3167 9.7292C18.8688 12.6506 18.2659 15.9184 18.5759 19.1642C18.8859 22.4099 20.0964 25.5045 22.0711 28.0991L19.9973 28.9303C14.377 31.1567 9.55793 35.0249 6.16854 40.0306C2.77915 45.0362 0.976708 50.947 0.996251 56.9922C0.996346 57.8483 1.24759 58.6855 1.71886 59.4002C2.19014 60.1149 2.86073 60.6756 3.64756 61.0129ZM35.997 8.86613C37.7276 8.86613 39.4194 9.37932 40.8584 10.3408C42.2973 11.3023 43.4189 12.6689 44.0811 14.2678C44.7434 15.8667 44.9167 17.626 44.5791 19.3234C44.2414 21.0208 43.4081 22.5799 42.1843 23.8036C40.9606 25.0274 39.4015 25.8608 37.7041 26.1984C36.0067 26.536 34.2473 26.3627 32.6485 25.7004C31.0496 25.0382 29.683 23.9166 28.7215 22.4777C27.76 21.0387 27.2468 19.347 27.2468 17.6163C27.2468 15.2956 28.1687 13.07 29.8097 11.429C31.4507 9.78803 33.6763 8.86613 35.997 8.86613ZM23.2436 37.0549L28.0912 35.1167H43.9028L48.7504 37.0549C52.2879 38.4552 55.3869 40.7754 57.7268 43.7753C60.0667 46.7752 61.5625 50.3458 62.0595 54.1177C45.2636 60.4617 26.7305 60.4617 9.93457 54.1177C10.4315 50.3458 11.9273 46.7752 14.2672 43.7753C16.6071 40.7754 19.7062 38.4552 23.2436 37.0549Z" fill="#6C63FF"/>
<path d="M192.005 28.9303L189.927 28.0991C191.901 25.5045 193.112 22.4099 193.422 19.1642C193.732 15.9184 193.129 12.6506 191.681 9.7292C190.233 6.80779 187.998 4.34895 185.228 2.62991C182.457 0.910869 179.261 0 176.001 0C172.74 0 169.545 0.910869 166.774 2.62991C164.004 4.34895 161.768 6.80779 160.321 9.7292C158.873 12.6506 158.27 15.9184 158.58 19.1642C158.89 22.4099 160.1 25.5045 162.075 28.0991L160.001 28.9303C154.381 31.1567 149.562 35.0249 146.172 40.0306C142.783 45.0362 140.981 50.947 141 56.9922C141 57.8483 141.251 58.6855 141.723 59.4002C142.194 60.1149 142.865 60.6756 143.651 61.0129C153.877 65.3808 164.882 67.6282 176.001 67.6193C187.12 67.6282 198.125 65.3808 208.35 61.0129C209.137 60.6756 209.808 60.1149 210.279 59.4002C210.75 58.6855 211.002 57.8483 211.002 56.9922C211.021 50.9477 209.219 45.0375 205.83 40.032C202.442 35.0265 197.624 31.1579 192.005 28.9303ZM176.001 8.86613C177.732 8.86613 179.423 9.37932 180.862 10.3408C182.301 11.3023 183.423 12.6689 184.085 14.2678C184.747 15.8667 184.921 17.626 184.583 19.3234C184.245 21.0208 183.412 22.5799 182.188 23.8036C180.965 25.0274 179.405 25.8608 177.708 26.1984C176.011 26.536 174.251 26.3627 172.652 25.7004C171.053 25.0382 169.687 23.9166 168.725 22.4777C167.764 21.0387 167.251 19.347 167.251 17.6163C167.251 15.2956 168.173 13.07 169.814 11.429C171.455 9.78803 173.68 8.86613 176.001 8.86613ZM149.938 54.1177C150.435 50.3458 151.931 46.7752 154.271 43.7753C156.611 40.7754 159.71 38.4552 163.248 37.0549L168.095 35.1167H183.907L188.754 37.0549C192.292 38.4552 195.391 40.7754 197.731 43.7753C200.071 46.7752 201.566 50.3458 202.063 54.1177C185.267 60.4617 166.734 60.4617 149.938 54.1177Z" fill="#6C63FF"/>
<path d="M192.005 168.932L189.927 168.101C191.901 165.506 193.112 162.412 193.422 159.166C193.732 155.92 193.129 152.653 191.681 149.731C190.233 146.81 187.998 144.351 185.228 142.632C182.457 140.913 179.261 140.002 176.001 140.002C172.74 140.002 169.545 140.913 166.774 142.632C164.004 144.351 161.768 146.81 160.321 149.731C158.873 152.653 158.27 155.92 158.58 159.166C158.89 162.412 160.1 165.506 162.075 168.101L160.001 168.932C154.381 171.159 149.562 175.027 146.172 180.033C142.783 185.038 140.981 190.949 141 196.994C141 197.85 141.251 198.687 141.723 199.402C142.194 200.117 142.865 200.678 143.651 201.015C153.879 205.374 164.883 207.621 176.001 207.621C187.119 207.621 198.123 205.374 208.35 201.015C209.137 200.678 209.808 200.117 210.279 199.402C210.75 198.687 211.002 197.85 211.002 196.994C211.021 190.95 209.219 185.039 205.83 180.034C202.442 175.028 197.624 171.16 192.005 168.932ZM176.001 148.868C177.732 148.868 179.423 149.381 180.862 150.343C182.301 151.304 183.423 152.671 184.085 154.27C184.747 155.869 184.921 157.628 184.583 159.325C184.245 161.023 183.412 162.582 182.188 163.806C180.965 165.029 179.405 165.863 177.708 166.2C176.011 166.538 174.251 166.365 172.652 165.702C171.053 165.04 169.687 163.919 168.725 162.48C167.764 161.041 167.251 159.349 167.251 157.618C167.251 155.298 168.173 153.072 169.814 151.431C171.455 149.79 173.68 148.868 176.001 148.868ZM149.938 194.12C150.435 190.348 151.931 186.777 154.271 183.777C156.611 180.777 159.71 178.457 163.248 177.057L168.095 175.119H183.907L188.754 177.057C192.292 178.457 195.391 180.777 197.731 183.777C200.071 186.777 201.566 190.348 202.063 194.12C185.267 200.464 166.734 200.464 149.938 194.12Z" fill="#6C63FF"/>
<path d="M154.123 105.12C154.123 83.4108 133.516 65.7441 108.185 65.7441C82.8528 65.7441 62.2461 83.4108 62.2461 105.12C62.4423 111.738 64.3553 118.19 67.7977 123.846C71.24 129.501 76.0934 134.164 81.8815 137.378L77.3927 150.84C76.9738 152.087 76.9613 153.435 77.3569 154.69C77.7524 155.945 78.5358 157.042 79.5942 157.824C80.6526 158.606 81.9317 159.032 83.2475 159.041C84.5633 159.05 85.8481 158.642 86.9173 157.875L105.73 144.426C106.535 144.47 107.349 144.496 108.171 144.496C133.516 144.496 154.123 126.829 154.123 105.12ZM108.185 135.746C107.043 135.746 105.914 135.684 104.794 135.601C103.772 135.515 102.754 135.799 101.924 136.402L88.151 146.246L91.3405 136.678C91.6756 135.678 91.6388 134.592 91.2369 133.618C90.8351 132.644 90.095 131.847 89.1529 131.375C83.9774 129.13 79.5338 125.481 76.325 120.841C73.1161 116.201 71.2703 110.755 70.9963 105.12C70.9963 88.2321 87.6785 74.4943 108.185 74.4943C128.691 74.4943 145.373 88.2321 145.373 105.12C145.373 122.008 128.691 135.746 108.185 135.746Z" fill="#FBE591"/>
<path d="M15.2239 73.0371C7.92015 93.802 7.92015 116.437 15.2239 137.202L23.4754 134.288C16.8374 115.409 16.8374 94.8303 23.4754 75.9509L15.2239 73.0371Z" fill="#6C63FF"/>
<path d="M80.9938 188.998L78.5 197.385C96.4465 202.699 115.548 202.699 133.495 197.385L131.001 188.998C114.679 193.806 97.3162 193.806 80.9938 188.998Z" fill="#6C63FF"/>
<path d="M196.775 137.202C204.079 116.437 204.079 93.802 196.775 73.0371L188.523 75.9509C195.161 94.8303 195.161 115.409 188.523 134.288L196.775 137.202Z" fill="#6C63FF"/>
<path d="M147.662 28.1525L151.836 20.4611C137.756 12.8516 122.003 8.86719 105.998 8.86719C89.9932 8.86719 74.2402 12.8516 60.1602 20.4611L64.334 28.1525C77.1721 21.3627 91.475 17.8133 105.998 17.8133C120.521 17.8133 134.824 21.3627 147.662 28.1525Z" fill="#6C63FF"/>
<svg x="82" y="80" width="53" height="48" viewBox="0 0 53 48" fill="none" xmlns="http://www.w3.org/2000/svg">
<path d="M46.3432 19.8125L30.9623 9.41951C28.0914 7.48029 24.3195 7.53169 21.5028 9.55089L6.46392 20.3352C1.84536 23.6481 1.84536 30.5282 6.46392 33.8383L21.2633 44.4484C24.1257 46.5019 27.9716 46.519 30.8539 44.4884L46.4772 33.4899C51.2298 30.1427 51.1614 23.0655 46.3461 19.8125H46.3432Z" fill="white" stroke="#FBE591" stroke-width="3" stroke-miterlimit="10"/>
<path opacity="0.77" d="M50.4394 22.6028C50.1455 23.0092 49.7838 23.2418 49.3431 23.5697C47.758 24.7552 46.0966 25.851 44.4776 26.9916C43.466 27.7035 42.1861 28.2892 40.9372 27.8464C40.4371 27.6699 40.0444 27.3868 39.6403 27.0477C39.1741 26.6553 33.461 21.9301 33.4045 21.9834C32.6727 21.2687 31.89 20.5064 31.13 19.8226C29.1804 18.0794 25.8491 18.511 23.7837 19.9571C23.7837 19.9571 19.6472 22.8494 19.6444 22.8522L13.9086 26.8627C12.5722 27.7988 10.8825 27.9866 9.40761 27.4373C8.93858 27.2635 8.49497 27.0169 8.0881 26.6974L6.78555 25.6688L4.53929 23.8415L4.28782 23.6341L3.09547 22.6616C3.01353 22.5944 2.94006 22.5299 2.86943 22.4598C2.72533 22.3169 2.59535 22.1628 2.48233 21.9918C2.37497 21.8321 2.28455 21.6639 2.21391 21.4901C2.18283 21.4201 2.16306 21.3528 2.14328 21.2827C2.1235 21.2351 2.1122 21.1847 2.09807 21.1342C1.9907 20.7278 1.97092 20.3046 2.04156 19.8899C2.04438 19.8758 2.05004 19.8646 2.05004 19.845C2.1461 19.3994 2.41735 19.0098 2.79031 18.7408C4.58167 17.432 10.4163 13.1748 10.4163 13.1748L17.4885 8.02365L23.0604 3.96269C24.8207 2.6791 27.2195 2.6791 28.9826 3.96269L36.5521 9.48101C36.5521 9.48101 40.5812 12.4153 40.584 12.4153C42.8303 13.9455 45.0766 15.473 47.3228 17.0032C48.1507 17.5665 48.9814 18.1298 49.8121 18.6903C50.0777 18.8697 50.3461 19.0547 50.5298 19.3153C50.7134 19.5788 50.7925 19.8983 50.866 20.2094C50.9395 20.5092 51.0101 20.8147 50.9988 21.123C50.9818 21.5238 50.8236 21.9021 50.6428 22.2609C50.5806 22.387 50.5128 22.4963 50.4394 22.5972V22.6028Z" fill="white" stroke="#FBE591" stroke-width="3" stroke-miterlimit="10"/>
<path opacity="0.77" d="M35.2589 11.4111C35.1873 11.4732 35.113 11.5322 35.0357 11.5883L34.5695 11.9367L33.8973 12.4386L28.6801 16.3389C27.4358 17.266 25.7482 17.2129 24.564 16.2119L19.4154 11.8511L18.7833 11.3167L17.9538 10.611C17.8737 10.5402 17.7965 10.4723 17.725 10.3984C17.7164 10.3896 17.7078 10.3807 17.6992 10.3719C16.6294 9.26467 16.8211 7.41344 18.0425 6.48635L22.619 3.01419C24.401 1.66194 26.8294 1.66194 28.6143 3.01419L35.1244 7.9508C36.2342 8.79227 36.3 10.4811 35.2589 11.4141V11.4111Z" fill="white" stroke="#FBE591" stroke-width="3" stroke-miterlimit="10"/>
<path opacity="0.77" d="M34.7764 35.8495L33.6637 36.6588L28.5643 40.3708C27.3481 41.2532 25.6986 41.2026 24.5412 40.25L19.5088 36.0996L18.0802 34.9165C18.0019 34.8519 17.9264 34.7845 17.8565 34.7142C16.5425 33.4188 16.7886 31.2157 18.2647 30.1086L24.5999 25.3653C24.6586 25.3231 24.7313 25.2782 24.8152 25.236C25.5896 24.8454 26.5234 24.9522 27.2279 25.4636L34.7065 30.8982L34.7401 30.9235C36.2833 32.0812 36.4567 34.422 34.9945 35.6781C34.9246 35.7371 34.8547 35.7933 34.7792 35.8495H34.7764Z" fill="white" stroke="#FBE591" stroke-width="3" stroke-miterlimit="10"/>
<path opacity="0.77" d="M19.2515 22.7407C18.7686 23.2614 18.1293 23.6201 17.5599 24.0281C16.608 24.7137 15.6477 25.3935 14.6931 26.0763C14.2604 26.3858 13.8277 26.6867 13.4006 27.0049C12.9261 27.3579 12.4292 27.705 11.8625 27.8786C11.2317 28.0696 10.5422 28.0291 9.92247 27.8005C9.24415 27.5488 8.6719 27.0888 8.12478 26.6173C7.55811 26.1313 6.9747 25.6742 6.39408 25.2055C5.26633 24.2942 4.13859 23.3829 3.00805 22.4745C2.67866 22.2084 2.3381 21.9306 2.15944 21.5401C1.98917 21.1669 1.98637 20.7387 2.0115 20.3279C2.03662 19.8882 2.08966 19.4369 2.29343 19.0492C2.50558 18.65 2.8601 18.3549 3.22299 18.1003C3.79803 17.6982 4.34515 17.2729 4.90344 16.8505C5.94745 16.0608 6.99424 15.2681 8.03824 14.4783C8.52675 14.108 9.01525 13.7406 9.50375 13.3703C10.1011 12.919 10.9218 12.864 11.5331 13.2951C11.5359 13.2951 11.5415 13.3009 11.5443 13.3038L14.0343 15.08C15.2737 15.9624 16.4936 16.8853 17.7469 17.7416C18.2829 18.1061 18.8551 18.4417 19.285 18.9422C19.6618 19.379 19.9103 19.9316 19.9801 20.5131C20.0499 21.0946 19.9354 21.6963 19.6507 22.1997C19.5362 22.4022 19.3995 22.5787 19.2487 22.7436L19.2515 22.7407Z" fill="white" stroke="#FBE591" stroke-width="3" stroke-linecap="round" stroke-linejoin="round"/>
<path opacity="0.77" d="M50.2518 22.7428C49.7692 23.2614 49.1287 23.6213 48.5615 24.0323C47.6077 24.7181 46.6511 25.3954 45.6944 26.0784C45.2627 26.3874 44.8281 26.6878 44.402 27.0052C43.9279 27.3594 43.4313 27.7052 42.8641 27.878C42.232 28.0708 41.5434 28.0283 40.9226 27.7987C40.2453 27.5465 39.6725 27.0845 39.125 26.6169C38.5578 26.1295 37.9737 25.6732 37.3952 25.2056C36.2665 24.293 35.1405 23.3833 34.0089 22.4736C33.6788 22.2072 33.3373 21.9294 33.1595 21.5383C32.9902 21.1671 32.9874 20.7391 33.01 20.3282C33.0354 19.8889 33.089 19.4383 33.2922 19.0501C33.5038 18.6533 33.8566 18.3557 34.2234 18.1007C34.7962 17.6982 35.3437 17.2731 35.9024 16.8508L39.0376 14.4788C39.5258 14.1103 40.0139 13.7391 40.5021 13.3707C41.1004 12.92 41.9215 12.8634 42.5311 13.2941C42.5339 13.297 42.5395 13.2998 42.5424 13.3026L45.0341 15.0796C46.2729 15.9638 47.492 16.8849 48.7477 17.7407C49.2839 18.1063 49.8539 18.4407 50.2857 18.9424C50.661 19.3788 50.9121 19.9314 50.9798 20.5124C51.0504 21.0906 50.9347 21.6942 50.6497 22.1987C50.5368 22.3999 50.3985 22.5784 50.2462 22.7428H50.2518Z" fill="white" stroke="#FBE591" stroke-width="3" stroke-linecap="round" stroke-linejoin="round"/>
</svg>


</svg>
