<svg width="228" height="229" viewBox="0 0 228 229" fill="none" xmlns="http://www.w3.org/2000/svg">
<path d="M118.827 10.0402V0.546875H109.333V10.0402H9.65348H0.160156V19.5335H9.65348V142.947H0.160156V152.44H9.65348H92.5824L61.8667 222.648V228.387H71.3601V224.632L102.944 152.44H109.333V228.387H118.827V152.44H125.216L156.8 224.632V228.387H166.293V222.648L135.578 152.44H218.507H228V142.947H218.507V19.5335H228V10.0402H218.507H118.827ZM209.013 142.947H19.1468V19.5335H209.013V142.947Z" fill="#6C63FF"/>
<path d="M137.814 67H128.32V128.707H137.814V67Z" fill="#CBE8EB"/>
<path d="M114.079 90.7344H104.586V128.708H114.079V90.7344Z" fill="#CBE8EB"/>
<path d="M90.3449 109.721H80.8516V128.707H90.3449V109.721Z" fill="#CBE8EB"/>
<path d="M66.6144 90.7344H57.1211V128.708H66.6144V90.7344Z" fill="#CBE8EB"/>
<path d="M42.88 114.467H33.3867V128.707H42.88V114.467Z" fill="#CBE8EB"/>
<path d="M61.8671 68.965L85.6004 92.6983L136.423 41.8758L129.711 35.1641L85.6004 79.2748L61.8671 55.5415L30.0312 87.3773L36.743 94.0891L61.8671 68.965Z" fill="#CBE8EB"/>
<path d="M194.775 33.7734H152.055V43.2668H194.775V33.7734Z" fill="#CBE8EB"/>
<path d="M194.775 57.5078H152.055V67.0011H194.775V57.5078Z" fill="#CBE8EB"/>
<svg x="150" y="80" width="53" height="47" viewBox="0 0 53 47" fill="none" xmlns="http://www.w3.org/2000/svg">
<path d="M46.3432 18.8125L30.9623 8.41951C28.0914 6.48029 24.3195 6.53169 21.5028 8.55089L6.46392 19.3352C1.84536 22.6481 1.84536 29.5282 6.46392 32.8383L21.2633 43.4484C24.1257 45.5019 27.9716 45.519 30.8539 43.4884L46.4772 32.4899C51.2298 29.1427 51.1614 22.0655 46.3461 18.8125H46.3432Z" fill="white" stroke="#CBE8EB" stroke-width="3" stroke-miterlimit="10"/>
<path opacity="0.77" d="M50.4394 21.6028C50.1455 22.0092 49.7838 22.2418 49.3431 22.5697C47.758 23.7552 46.0966 24.851 44.4776 25.9916C43.466 26.7035 42.1861 27.2892 40.9372 26.8464C40.4371 26.6699 40.0444 26.3868 39.6403 26.0477C39.1741 25.6553 33.461 20.9301 33.4045 20.9834C32.6727 20.2687 31.89 19.5064 31.13 18.8226C29.1804 17.0794 25.8491 17.511 23.7837 18.9571C23.7837 18.9571 19.6472 21.8494 19.6444 21.8522L13.9086 25.8627C12.5722 26.7988 10.8825 26.9866 9.40761 26.4373C8.93858 26.2635 8.49497 26.0169 8.0881 25.6974L6.78555 24.6688L4.53929 22.8415L4.28782 22.6341L3.09547 21.6616C3.01353 21.5944 2.94006 21.5299 2.86943 21.4598C2.72533 21.3169 2.59535 21.1628 2.48233 20.9918C2.37497 20.8321 2.28455 20.6639 2.21391 20.4901C2.18283 20.4201 2.16306 20.3528 2.14328 20.2827C2.1235 20.2351 2.1122 20.1847 2.09807 20.1342C1.9907 19.7278 1.97092 19.3046 2.04156 18.8899C2.04438 18.8758 2.05004 18.8646 2.05004 18.845C2.1461 18.3994 2.41735 18.0098 2.79031 17.7408C4.58167 16.432 10.4163 12.1748 10.4163 12.1748L17.4885 7.02365L23.0604 2.96269C24.8207 1.6791 27.2195 1.6791 28.9826 2.96269L36.5521 8.48101C36.5521 8.48101 40.5812 11.4153 40.584 11.4153C42.8303 12.9455 45.0766 14.473 47.3228 16.0032C48.1507 16.5665 48.9814 17.1298 49.8121 17.6903C50.0777 17.8697 50.3461 18.0547 50.5298 18.3153C50.7134 18.5788 50.7925 18.8983 50.866 19.2094C50.9395 19.5092 51.0101 19.8147 50.9988 20.123C50.9818 20.5238 50.8236 20.9021 50.6428 21.2609C50.5806 21.387 50.5128 21.4963 50.4394 21.5972V21.6028Z" fill="white" stroke="#CBE8EB" stroke-width="3" stroke-miterlimit="10"/>
<path opacity="0.77" d="M35.2589 11.4111C35.1873 11.4732 35.113 11.5322 35.0357 11.5883L34.5695 11.9367L33.8973 12.4386L28.6801 16.3389C27.4358 17.266 25.7482 17.2129 24.564 16.2119L19.4154 11.8511L18.7833 11.3167L17.9538 10.611C17.8737 10.5402 17.7965 10.4723 17.725 10.3984C17.7164 10.3896 17.7078 10.3807 17.6992 10.3719C16.6294 9.26467 16.8211 7.41344 18.0425 6.48635L22.619 3.01419C24.401 1.66194 26.8294 1.66194 28.6143 3.01419L35.1244 7.9508C36.2342 8.79227 36.3 10.4811 35.2589 11.4141V11.4111Z" fill="white" stroke="#CBE8EB" stroke-width="3" stroke-miterlimit="10"/>
<path opacity="0.77" d="M34.7764 34.8495L33.6637 35.6588L28.5643 39.3708C27.3481 40.2532 25.6986 40.2026 24.5412 39.25L19.5088 35.0996L18.0802 33.9165C18.0019 33.8519 17.9264 33.7845 17.8565 33.7142C16.5425 32.4188 16.7886 30.2157 18.2647 29.1086L24.5999 24.3653C24.6586 24.3231 24.7313 24.2782 24.8152 24.236C25.5896 23.8454 26.5234 23.9522 27.2279 24.4636L34.7065 29.8982L34.7401 29.9235C36.2833 31.0812 36.4567 33.422 34.9945 34.6781C34.9246 34.7371 34.8547 34.7933 34.7792 34.8495H34.7764Z" fill="white" stroke="#CBE8EB" stroke-width="3" stroke-miterlimit="10"/>
<path opacity="0.77" d="M19.2515 21.7407C18.7686 22.2614 18.1293 22.6201 17.5599 23.0281C16.608 23.7137 15.6477 24.3935 14.6931 25.0763C14.2604 25.3858 13.8277 25.6867 13.4006 26.0049C12.9261 26.3579 12.4292 26.705 11.8625 26.8786C11.2317 27.0696 10.5422 27.0291 9.92247 26.8005C9.24415 26.5488 8.6719 26.0888 8.12478 25.6173C7.55811 25.1313 6.9747 24.6742 6.39408 24.2055C5.26633 23.2942 4.13859 22.3829 3.00805 21.4745C2.67866 21.2084 2.3381 20.9306 2.15944 20.5401C1.98917 20.1669 1.98637 19.7387 2.0115 19.3279C2.03662 18.8882 2.08966 18.4369 2.29343 18.0492C2.50558 17.65 2.8601 17.3549 3.22299 17.1003C3.79803 16.6982 4.34515 16.2729 4.90344 15.8505C5.94745 15.0608 6.99424 14.2681 8.03824 13.4783C8.52675 13.108 9.01525 12.7406 9.50375 12.3703C10.1011 11.919 10.9218 11.864 11.5331 12.2951C11.5359 12.2951 11.5415 12.3009 11.5443 12.3038L14.0343 14.08C15.2737 14.9624 16.4936 15.8853 17.7469 16.7416C18.2829 17.1061 18.8551 17.4417 19.285 17.9422C19.6618 18.379 19.9103 18.9316 19.9801 19.5131C20.0499 20.0946 19.9354 20.6963 19.6507 21.1997C19.5362 21.4022 19.3995 21.5787 19.2487 21.7436L19.2515 21.7407Z" fill="white" stroke="#CBE8EB" stroke-width="3" stroke-linecap="round" stroke-linejoin="round"/>
<path opacity="0.77" d="M50.2518 21.7428C49.7692 22.2614 49.1287 22.6213 48.5615 23.0323C47.6077 23.7181 46.6511 24.3954 45.6944 25.0784C45.2627 25.3874 44.8281 25.6878 44.402 26.0052C43.9279 26.3594 43.4313 26.7052 42.8641 26.878C42.232 27.0708 41.5434 27.0283 40.9226 26.7987C40.2453 26.5465 39.6725 26.0845 39.125 25.6169C38.5578 25.1295 37.9737 24.6732 37.3952 24.2056C36.2665 23.293 35.1405 22.3833 34.0089 21.4736C33.6788 21.2072 33.3373 20.9294 33.1595 20.5383C32.9902 20.1671 32.9874 19.7391 33.01 19.3282C33.0354 18.8889 33.089 18.4383 33.2922 18.0501C33.5038 17.6533 33.8566 17.3557 34.2234 17.1007C34.7962 16.6982 35.3437 16.2731 35.9024 15.8508L39.0376 13.4788C39.5258 13.1103 40.0139 12.7391 40.5021 12.3707C41.1004 11.92 41.9215 11.8634 42.5311 12.2941C42.5339 12.297 42.5395 12.2998 42.5424 12.3026L45.0341 14.0796C46.2729 14.9638 47.492 15.8849 48.7477 16.7407C49.2839 17.1063 49.8539 17.4407 50.2857 17.9424C50.661 18.3788 50.9121 18.9314 50.9798 19.5124C51.0504 20.0906 50.9347 20.6942 50.6497 21.1987C50.5368 21.3999 50.3985 21.5784 50.2462 21.7428H50.2518Z" fill="white" stroke="#CBE8EB" stroke-width="3" stroke-linecap="round" stroke-linejoin="round"/>
</svg>

</svg>
