<svg width="240" height="241" viewBox="0 0 240 241" fill="none" xmlns="http://www.w3.org/2000/svg">
<g clip-path="url(#clip0_297_1000)">
<path d="M151.389 86.0441C148.644 83.2986 144.192 83.2986 141.446 86.0441C138.7 88.7895 138.7 93.2417 141.446 95.9877L151.389 105.931C152.762 107.304 154.562 107.991 156.361 107.991C158.16 107.991 159.96 107.304 161.333 105.931L181.22 86.0441C183.966 83.2986 183.966 78.8464 181.22 76.1005C178.474 73.3541 174.023 73.355 171.276 76.1005L156.361 91.0156L151.389 86.0441Z" fill="#6C63FF"/>
<path d="M171.277 111.726L156.361 126.641L151.389 121.669C148.644 118.924 144.192 118.924 141.446 121.669C138.7 124.415 138.7 128.867 141.446 131.613L151.389 141.557C152.762 142.93 154.562 143.616 156.361 143.616C158.16 143.616 159.96 142.93 161.333 141.557L181.22 121.669C183.966 118.924 183.966 114.472 181.22 111.726C178.475 108.979 174.023 108.98 171.277 111.726Z" fill="#6C63FF"/>
<path d="M120 83.9844H63.75C59.8669 83.9844 56.7188 87.1325 56.7188 91.0156C56.7188 94.8988 59.8669 98.0469 63.75 98.0469H120C123.883 98.0469 127.031 94.8988 127.031 91.0156C127.031 87.1325 123.883 83.9844 120 83.9844Z" fill="#6C63FF"/>
<path d="M120 119.609H63.75C59.8669 119.609 56.7188 122.757 56.7188 126.641C56.7188 130.524 59.8669 133.672 63.75 133.672H120C123.883 133.672 127.031 130.524 127.031 126.641C127.031 122.757 123.883 119.609 120 119.609Z" fill="#6C63FF"/>
<path d="M120 155.234H63.75C59.8669 155.234 56.7188 158.382 56.7188 162.266C56.7188 166.149 59.8669 169.297 63.75 169.297H120C123.883 169.297 127.031 166.149 127.031 162.266C127.031 158.382 123.883 155.234 120 155.234Z" fill="#6C63FF"/>
<path d="M120 190.859H63.75C59.8669 190.859 56.7188 194.007 56.7188 197.891C56.7188 201.774 59.8669 204.922 63.75 204.922H120C123.883 204.922 127.031 201.774 127.031 197.891C127.031 194.007 123.883 190.859 120 190.859Z" fill="#6C63FF"/>
<path d="M204.375 28.6719H164.388C161.738 23.0506 156.056 19.2969 149.558 19.2969H143.068L145.572 9.28344C146.097 7.18344 145.625 4.95734 144.293 3.25109C142.959 1.54438 140.915 0.546875 138.75 0.546875H101.25C99.0848 0.546875 97.0406 1.54438 95.708 3.25109C94.3758 4.95781 93.9037 7.18344 94.4287 9.28344L96.9323 19.2969H90.442C83.9452 19.2969 78.262 23.0506 75.6122 28.6719H35.625C31.7419 28.6719 28.5938 31.82 28.5938 35.7031V233.516C28.5938 237.399 31.7419 240.547 35.625 240.547H204.375C208.258 240.547 211.406 237.399 211.406 233.516V35.7031C211.406 31.82 208.258 28.6719 204.375 28.6719ZM90.4416 33.3594H105.938C108.103 33.3594 110.147 32.3619 111.48 30.6552C112.812 28.9484 113.284 26.7228 112.759 24.6228L110.255 14.6094H129.744L127.241 24.6228C126.716 26.7228 127.188 28.9489 128.52 30.6552C129.853 32.3619 131.897 33.3594 134.062 33.3594H149.558C150.709 33.3594 151.681 34.183 151.87 35.3178L153.887 47.4219H86.1127L88.1302 35.3178C88.3191 34.183 89.2912 33.3594 90.4416 33.3594ZM197.344 226.484H42.6562V42.7344H72.6375L70.8769 53.2972C70.537 55.3358 71.1112 57.4208 72.4477 58.9977C73.7841 60.5745 75.7458 61.4844 77.8125 61.4844H162.188C164.254 61.4844 166.216 60.575 167.552 58.9977C168.888 57.4203 169.463 55.3353 169.123 53.2972L167.363 42.7344H197.344V226.484Z" fill="#FBE591"/>
<path d="M183.343 186.813L167.962 176.42C165.091 174.48 161.32 174.532 158.503 176.551L143.464 187.335C138.845 190.648 138.845 197.528 143.464 200.838L158.263 211.448C161.126 213.502 164.972 213.519 167.854 211.488L183.477 200.49C188.23 197.143 188.161 190.065 183.346 186.813H183.343Z" fill="white" stroke="#FBE591" stroke-width="3" stroke-miterlimit="10"/>
<path opacity="0.77" d="M187.439 189.603C187.146 190.009 186.784 190.242 186.343 190.57C184.758 191.755 183.097 192.851 181.478 193.992C180.466 194.703 179.186 195.289 177.937 194.846C177.437 194.67 177.044 194.387 176.64 194.048C176.174 193.655 170.461 188.93 170.404 188.983C169.673 188.269 168.89 187.506 168.13 186.823C166.18 185.079 162.849 185.511 160.784 186.957C160.784 186.957 156.647 189.849 156.644 189.852L150.909 193.863C149.572 194.799 147.883 194.987 146.408 194.437C145.939 194.263 145.495 194.017 145.088 193.697L143.786 192.669L141.539 190.842L141.288 190.634L140.095 189.662C140.014 189.594 139.94 189.53 139.869 189.46C139.725 189.317 139.595 189.163 139.482 188.992C139.375 188.832 139.285 188.664 139.214 188.49C139.183 188.42 139.163 188.353 139.143 188.283C139.123 188.235 139.112 188.185 139.098 188.134C138.991 187.728 138.971 187.305 139.042 186.89C139.044 186.876 139.05 186.865 139.05 186.845C139.146 186.399 139.417 186.01 139.79 185.741C141.582 184.432 147.416 180.175 147.416 180.175L154.489 175.024L160.06 170.963C161.821 169.679 164.219 169.679 165.983 170.963L173.552 176.481C173.552 176.481 177.581 179.415 177.584 179.415C179.83 180.946 182.077 182.473 184.323 184.003C185.151 184.567 185.981 185.13 186.812 185.69C187.078 185.87 187.346 186.055 187.53 186.315C187.713 186.579 187.793 186.898 187.866 187.209C187.939 187.509 188.01 187.815 187.999 188.123C187.982 188.524 187.824 188.902 187.643 189.261C187.581 189.387 187.513 189.496 187.439 189.597V189.603Z" fill="white" stroke="#FBE591" stroke-width="3" stroke-miterlimit="10"/>
<path opacity="0.77" d="M172.259 179.411C172.187 179.473 172.113 179.532 172.036 179.588L171.57 179.937L170.897 180.439L165.68 184.339C164.436 185.266 162.748 185.213 161.564 184.212L156.415 179.851L155.783 179.317L154.954 178.611C154.874 178.54 154.796 178.472 154.725 178.398C154.716 178.39 154.708 178.381 154.699 178.372C153.629 177.265 153.821 175.413 155.042 174.486L159.619 171.014C161.401 169.662 163.829 169.662 165.614 171.014L172.124 175.951C173.234 176.792 173.3 178.481 172.259 179.414V179.411Z" fill="white" stroke="#FBE591" stroke-width="3" stroke-miterlimit="10"/>
<path opacity="0.77" d="M171.776 202.849L170.664 203.659L165.564 207.371C164.348 208.253 162.699 208.203 161.541 207.25L156.509 203.1L155.08 201.917C155.002 201.852 154.926 201.784 154.857 201.714C153.543 200.419 153.789 198.216 155.265 197.109L161.6 192.365C161.659 192.323 161.731 192.278 161.815 192.236C162.59 191.845 163.523 191.952 164.228 192.464L171.707 197.898L171.74 197.923C173.283 199.081 173.457 201.422 171.994 202.678C171.925 202.737 171.855 202.793 171.779 202.849H171.776Z" fill="white" stroke="#FBE591" stroke-width="3" stroke-miterlimit="10"/>
<path opacity="0.77" d="M156.252 189.741C155.769 190.261 155.129 190.62 154.56 191.028C153.608 191.714 152.648 192.394 151.693 193.076C151.26 193.386 150.828 193.687 150.401 194.005C149.926 194.358 149.429 194.705 148.863 194.879C148.232 195.07 147.542 195.029 146.922 194.801C146.244 194.549 145.672 194.089 145.125 193.617C144.558 193.131 143.975 192.674 143.394 192.205C142.266 191.294 141.139 190.383 140.008 189.475C139.679 189.208 139.338 188.931 139.159 188.54C138.989 188.167 138.986 187.739 139.011 187.328C139.037 186.888 139.09 186.437 139.293 186.049C139.506 185.65 139.86 185.355 140.223 185.1C140.798 184.698 141.345 184.273 141.903 183.851C142.947 183.061 143.994 182.268 145.038 181.478C145.527 181.108 146.015 180.741 146.504 180.37C147.101 179.919 147.922 179.864 148.533 180.295C148.536 180.295 148.542 180.301 148.544 180.304L151.034 182.08C152.274 182.962 153.494 183.885 154.747 184.742C155.283 185.106 155.855 185.442 156.285 185.942C156.662 186.379 156.91 186.932 156.98 187.513C157.05 188.095 156.935 188.696 156.651 189.2C156.536 189.402 156.399 189.579 156.249 189.744L156.252 189.741Z" fill="white" stroke="#FBE591" stroke-width="3" stroke-linecap="round" stroke-linejoin="round"/>
<path opacity="0.77" d="M187.252 189.743C186.769 190.261 186.129 190.621 185.561 191.032C184.608 191.718 183.651 192.395 182.694 193.078C182.263 193.387 181.828 193.688 181.402 194.005C180.928 194.359 180.431 194.705 179.864 194.878C179.232 195.071 178.543 195.028 177.923 194.799C177.245 194.546 176.672 194.085 176.125 193.617C175.558 193.129 174.974 192.673 174.395 192.206C173.266 191.293 172.141 190.383 171.009 189.474C170.679 189.207 170.337 188.929 170.16 188.538C169.99 188.167 169.987 187.739 170.01 187.328C170.035 186.889 170.089 186.438 170.292 186.05C170.504 185.653 170.857 185.356 171.223 185.101C171.796 184.698 172.344 184.273 172.902 183.851L176.038 181.479C176.526 181.11 177.014 180.739 177.502 180.371C178.1 179.92 178.922 179.863 179.531 180.294C179.534 180.297 179.54 180.3 179.542 180.303L182.034 182.08C183.273 182.964 184.492 183.885 185.748 184.741C186.284 185.106 186.854 185.441 187.286 185.942C187.661 186.379 187.912 186.931 187.98 187.512C188.05 188.091 187.935 188.694 187.65 189.199C187.537 189.4 187.399 189.578 187.246 189.743H187.252Z" fill="white" stroke="#FBE591" stroke-width="3" stroke-linecap="round" stroke-linejoin="round"/>
</g>
<defs>
<clipPath id="clip0_297_1000">
<rect width="240" height="240" fill="white" transform="translate(0 0.546875)"/>
</clipPath>
</defs>
</svg>
